<svg viewBox="207 384 805 371" fill="none" xmlns="http://www.w3.org/2000/svg">
<g>
<mask id="path-2-outside-1_161_274" maskUnits="userSpaceOnUse" x="212.863" y="388.933" width="304.172" height="360.768" fill="black">
<rect fill="white" x="212.863" y="388.933" width="304.172" height="360.768"/>
<path d="M374.535 449.907C373.081 451.394 371.6 453.697 370.294 455.455C366.574 460.457 363.262 465.328 359.839 470.572C357.312 474.446 354.902 478.038 352.15 481.925C347.75 488.143 340.149 500.011 331.809 500.733C329.535 500.796 326.87 500.071 325.266 498.478C323.56 496.783 322.576 494.241 322.767 491.838C323.272 485.485 325.019 477.992 326.729 471.858C329.451 462.617 333.476 454.028 338.149 445.628C339.996 442.307 341.73 438.364 343.88 435.27C348.413 428.782 352.91 421.51 358.285 415.74C362.62 411.09 370.508 406.566 376.749 405.458C381.543 404.607 383.294 405.027 387.877 402.931C393.334 400.436 400.882 399.985 405.145 404.928C409.159 409.261 410.053 416.685 411.247 422.287C411.685 425.782 411.587 429.46 411.93 432.944C412.545 439.165 412.727 445.072 412.443 451.317C411.964 461.896 408.726 472.029 407.719 482.554C407.552 484.299 407.158 486.12 407.068 487.848C410.946 488.657 413.601 490.148 417.14 491.84C418.324 488.449 419.513 486.791 421.408 483.767C428.824 471.953 438.24 461.42 448.911 452.44C451.336 450.399 453.683 448.116 456.812 446.618C464.428 442.973 473.039 450.699 480.905 451.327C485.568 451.699 491.602 457.65 492.964 461.632C495.091 466.83 496.754 473.044 498.478 478.453C499.351 481.193 499.573 484.571 500.161 487.408C502.318 498.405 501.983 509.513 500.227 520.531C499.415 525.101 498.734 530.518 497.133 534.866C493.895 543.663 486.65 551.345 476.578 546.64C468.248 542.75 463.414 529.461 459.346 521.589C457.617 518.244 456.485 508.947 455.73 505.016C455.373 501.934 455.433 497.816 454.944 494.644C452.903 495.555 450.592 497.649 448.86 499.071C445.111 502.147 442.995 506.121 440.134 509.937C443.948 511.796 443.754 516.402 444.604 519.822C445.838 524.778 444.902 528.91 445.133 533.632C453.78 537.935 457.146 547.14 457.016 556.373C467.912 561.299 481.005 570.22 475.69 584.138C482.771 588.618 498.024 595.666 501.752 603.206C499.368 604.373 478.055 590.748 474.102 589.175L473.815 589.059C470.458 594.609 466.959 598.93 462.4 603.544C461.278 604.679 458.087 607.449 457.532 608.172C457.851 608.881 461.1 611.714 461.98 612.586C465.172 615.746 474.567 625.772 475.038 629.872C474.828 630.368 474.564 630.828 474.309 631.301C472.607 631.262 467.923 626.955 466.794 625.664C462.273 620.506 457.972 615.409 452.664 611.006C443 616.146 435.99 615.67 425.633 613.952C430.75 621.507 446.179 648.79 444.541 657.281C444.487 657.558 444.391 657.763 444.234 657.996C441.216 659.085 435.458 642.591 434.465 640.538C430.048 631.416 425.058 622.587 420.092 613.754C418.829 618.388 417.033 622.838 415.641 627.429C414.86 630.005 415.11 632.898 414.404 635.419C413.093 640.104 410.749 644.826 408.639 649.199C405.634 655.419 401.19 661.132 396.609 666.247C392.546 671.182 386.633 674.279 382.976 678.968C385.696 683.398 386.041 687.413 384.768 692.362C382.481 701.252 375.304 706.295 366.231 703.638C360.977 702.1 358.576 700.932 355.843 696.159L355.62 695.769C353.852 696.729 352.027 697.589 350.275 698.527C346.209 700.703 342.461 703.243 337.726 701.166C336.427 699.555 335.841 697.504 337.902 695.901C339.054 695.008 341.626 695.063 342.946 694.272C346.663 692.514 350.25 690.411 353.98 688.704C355.381 684.064 357.867 679.682 362.017 676.975C364.097 675.619 365.157 675.278 367.128 673.538C370.824 673.186 372.95 673.795 376.499 674.674C380.56 670.884 385.681 667.075 389.62 663.05C397.032 655.478 402.896 645.92 406.751 636.065C408.081 633.04 407.819 629.562 408.495 626.475C409.156 623.455 410.716 620.014 411.822 617.072C412.81 614.453 413.632 609.303 415.789 607.719C414.143 605.02 412.841 603.019 410.992 600.429C408.159 600.201 402.847 600.021 403.053 595.96C403.128 594.483 404.955 594.255 406.076 594.058C403.698 591.428 401.59 588.936 398.786 586.6C397.302 585.364 390.184 582.614 393.123 580.046C394.676 578.691 397.858 579.862 399.203 580.993C403.837 584.671 408.463 589.018 412.171 593.623C414.576 592.895 416.973 592.651 419.377 592.06C421.799 591.464 424.335 590.287 426.615 589.253C420.074 584.796 413.679 580.989 405.998 578.715C403.83 578.074 401.299 577.246 403.815 574.444C404.316 573.887 405.132 574.005 405.783 574.053C408.069 574.182 409.913 575.537 411.721 576.176C419.137 578.799 424.606 582.069 431.072 586.402C435.208 583.119 438.66 579.669 441.219 574.963C427.496 571.201 413.344 568.377 399.046 569.926C397.404 570.105 394.804 573.222 393.71 568.83C393.575 568.289 394.185 567.278 394.607 566.952C399.304 563.789 411.658 564.64 417.315 565.055C422.627 565.445 428.723 566.848 433.953 567.829C436.411 568.289 440.262 569.569 442.771 570.158C443.821 565.54 444.101 560.419 441.637 556.078C440.178 553.503 436.642 551.563 433.784 550.939C431.889 550.525 430.034 551.598 428.498 549.541C427.965 548.829 428.093 547.822 428.117 546.919C430.595 545.09 432.164 545.049 435.203 545.099C437.068 536.973 439.471 531.938 438.276 523.076C437.728 519.008 438.153 518.192 435.93 514.285C434.855 513.819 433.483 513.369 433.159 512.152C432.213 508.609 435.521 504.645 437.38 502.115C441.268 496.823 445.557 492.335 451.359 489.165C452.362 488.614 453.385 488.262 454.413 487.764C453.71 484.566 453.786 481.973 453.817 478.727C451.566 479.847 449.876 481.772 447.947 483.323C443.392 486.932 439.396 490.583 435.785 495.127C433.938 497.452 431.054 503.118 428.958 504.497C427.47 505.475 424.07 503.01 426.09 499.4C428.906 494.366 432.265 490.304 436.082 485.985C439.786 482.372 449.046 474.36 453.604 472.689C453.882 472.587 454.162 472.489 454.445 472.397C454.615 470.173 454.62 466.669 456.459 465.084C457.066 464.563 458.384 464.005 459.176 464.274C459.059 464.63 459.043 464.598 459.118 464.979L459.91 464.692C460.575 465.311 460.742 465.632 461.25 466.403C461.175 472.371 459.55 478.23 460.824 484.36C461.037 485.386 460.862 486.347 461.525 487.228L461.554 486.901C462.078 487.594 461.947 487.657 461.729 488.477C461.083 490.906 461.815 493.677 461.859 496.164C462.278 508.034 464.741 519.368 470.802 529.692C471.572 531.005 472.864 532.734 473.51 534.095C475.303 537.872 480.377 543.476 484.964 540.83C489.529 538.197 491.734 531.728 492.606 526.841C494.385 518.452 495.425 509.725 495.151 501.157C494.805 497.799 494.576 494.204 493.982 490.877C493.549 488.452 493.326 484.419 492.515 482.213C490.158 475.811 488.824 467.876 485.676 461.928C482.921 457.465 477.102 457.654 472.777 456.112C469.336 454.885 466.044 452.887 462.629 452.05C458.835 451.121 453.192 457.173 450.419 459.592C442.961 466.098 435.789 473.729 429.87 481.665C427.273 485.198 425.038 489.055 422.524 492.775C421.007 495.011 420.25 499.423 416.579 499.013C414.546 498.786 411.803 496.292 409.742 495.593C406.255 494.411 400.825 494.185 400.389 489.191C400.164 486.608 401.411 482.805 401.582 480.129C402.058 477.169 402.191 474.096 402.669 471.25C403.64 465.466 405.369 458.587 405.78 452.766C406.128 447.824 405.597 441.085 405.443 435.954C405.363 433.344 405.366 428.875 405.122 426.361C404.372 421.018 403.354 415.041 400.952 410.188C400.446 409.166 398.779 407.783 397.646 407.675C390.857 407.057 386.822 411.913 379.667 411.514C376.012 411.311 370.984 413.317 367.774 415.748C358.676 422.639 351.957 434.944 345.988 444.618C343.603 448.485 342.372 452.328 339.858 456.124C337.502 461.324 334.869 467.265 333.148 472.732C331.934 477.832 330.95 483.233 329.696 488.304C329.354 489.687 328.865 494.75 330.872 494.411C336.986 493.38 343.841 482.061 346.924 477.515C352.516 469.266 356.956 462.385 362.779 454.449C365.523 450.706 368.438 446.389 371.689 443.047C375.18 439.457 380.27 435.889 384.713 433.687C387.442 432.334 393.182 429.813 395.693 432.547C396.144 433.034 396.367 433.689 396.306 434.35C396.081 436.932 392.706 437.835 390.666 438.323C393.82 444.978 395.057 458.796 395.357 466.446C395.315 470.682 394.998 474.921 394.705 479.152C394.455 482.748 394.421 486.414 393.286 489.859C392.701 491.635 390.948 492.628 389.173 491.998C388.426 491.736 387.819 491.181 387.493 490.462C386.688 488.722 388.203 485.496 388.343 483.63C388.998 474.966 389.745 466.031 388.426 457.401C388.109 455.326 388.076 453.174 387.753 451.095C387.029 447.355 386.53 444.308 386.088 440.524C383.174 442.3 381.36 443.594 378.642 445.776C384.179 456.32 383.81 471.786 383.436 483.545C383.319 487.193 381.736 489.91 381.838 494.047C378.754 497.351 379.133 495.918 374.771 497.139C373.517 497.491 370.539 499.164 369.388 499.958C362.027 505.037 356.121 514.603 352.178 522.508C350.776 525.314 349.837 528.948 348.27 531.644C349.491 532.305 351.772 533.487 352.118 534.951C352.933 538.383 347.948 537.536 346.226 537.695C339.49 538.316 334.631 542.75 331.315 548.336C336.492 549.329 347.155 552.571 351.405 556.501C353.36 558.308 350.246 561.247 347.976 559.272C345.673 557.658 331.297 552.123 329.331 552.791C327.82 554.5 327.545 558.93 327.318 561.222C333.422 560.646 336.269 560.496 342.237 561.879C346.099 566.008 338.197 565.453 336.319 565.454C333.625 565.458 330.25 565.433 327.61 565.752C328.677 567.816 330.111 570.649 331.393 572.579C333.89 571.864 349.617 565.217 348.159 571.846C347.863 573.198 336.778 574.795 335.731 576.522C336.441 577.919 344.663 581.659 346.606 582.377C349.09 583.296 351.178 582.809 353.521 584.341C354.626 586.302 354.977 589 356.428 590.676C357.879 592.351 360.669 593.793 362.678 594.75C364.309 595.332 365.548 595.606 367.296 595.747C370.567 599.841 364.334 600.853 361.459 599.743C356.14 598.903 351.33 594.274 349.284 589.462L347.855 589.27C341.134 588.393 333.132 582.96 327.91 578.915C327.025 579.149 326.187 579.499 325.344 579.852C319.912 582.127 314.376 584.18 309.118 586.846C308.119 587.355 307.078 587.759 306.012 588.106C308.039 590.239 309.388 590.052 311.843 593.191C312.839 592.725 314.148 591.955 315.142 591.403L317.66 592.127C317.91 592.489 318.605 593.515 318.747 593.871C319.493 595.742 316.204 598.243 314.941 599.392C311.972 602.095 308.184 604.161 305.128 606.758C298.217 612.628 292.898 622.807 289.445 631.185L290.17 630.82C295.195 628.239 305.261 627.009 310.942 627.164C312.898 623.146 320.278 619.423 323.761 616.139C325.821 614.196 333.693 610.545 336.632 609.967C342.175 608.874 349.899 611.147 355.21 612.958C356.998 613.6 358.268 614.771 359.9 615.691C365.427 618.806 369.982 626.348 371.034 632.408C371.644 635.917 371.024 642.579 369.699 645.922C369.001 647.681 367.628 649.64 366.647 651.294C363.838 656.787 360.802 660.774 354.786 663.2C350.657 662.333 349.689 661.441 351.252 657.215C352.459 656.193 356.146 653.961 356.718 653.335C359.453 650.327 361.87 645.093 364.246 641.431C364.41 634.328 364.867 630.617 360.156 624.702C356.976 620.288 353.012 619.575 348.571 617.821C339.5 614.238 334.162 617.591 326.626 622.813C324.247 624.461 321.856 626.035 319.451 628.007C324.798 629.136 333.768 632.395 337.868 636.131C341.383 639.399 343.47 643.919 343.678 648.713C343.748 650.397 344.161 657.918 340.858 656.895C337.023 655.709 337.73 646.613 335.357 643.765C334.285 642.478 333.34 641.056 331.982 640.034C328.121 637.419 321.629 635.331 317.126 634.393C313.963 633.802 311.251 634.15 308.048 634.262C294.351 634.733 281.807 642.348 270.185 648.929C268.289 650.002 265.489 652.818 263.554 654.23C262.179 654.265 261.477 654.15 260.117 653.966C257.91 651.659 258.545 649.484 257.717 646.683C255.473 639.105 245.96 633.982 238.481 633.962C234.722 636.009 233.53 640.34 233.364 644.306C233.258 646.832 232.753 649.955 234.301 652.154C235.372 653.677 237.704 654.932 237.47 657.064C237.067 661.401 233.338 659.459 230.427 660.216C228.532 660.709 227.463 661.524 225.982 662.748C225.695 663.398 225.431 664.298 225.206 664.989C226.054 667.282 227.593 669.67 229.889 670.67C231.781 671.493 235.148 671.416 236.739 672.69C238.421 674.038 239.341 677.316 240.952 678.88C243.015 680.865 245.427 678.212 247.721 678.303C250.972 677.995 256.228 679.295 259.294 678.3C267.165 675.749 271.891 671.455 280.414 670.373C288.082 669.4 303.392 667.495 309.186 673.515C309.767 676.746 309.564 677.765 306.291 678.096C306.182 678.599 306.218 678.877 306.326 679.371C307.8 686.153 310.721 687.158 315.666 690.599C318.996 688.455 321.446 686.499 323.646 691.102C322.978 693.263 322.779 693.497 321.007 694.815C324.017 696.878 329.685 697.926 330.916 701.051C330.642 708.169 318.233 701.211 315.374 699.494C308.368 705.149 302.735 713.561 296.08 719.685C295.66 720.071 294.75 722.539 294.377 723.252C292.924 726.074 290.184 727.895 287.745 729.761C281.627 734.442 276.246 732.506 272.204 726.497C264.529 734.049 258.253 733.622 255.267 722.39C250.296 723.886 245.873 724.039 241.361 720.966C239.129 719.445 237.869 717.066 237.463 714.423C237.065 711.982 237.676 709.486 239.156 707.502C242.758 702.622 248.113 700.671 253.809 699.833C254.891 698.93 256.836 696.575 257.952 695.413C262.697 690.465 267.286 685.228 272.028 680.282C266.94 682.506 262.594 685.136 256.634 685.056C254.634 685.028 250.694 684.522 248.921 684.828C245.915 685.343 244.276 687.002 240.683 686.319C237.413 685.699 234.105 680.988 232.391 678.229C231.122 677.94 229.836 677.692 228.593 677.244C219.784 674.062 213.906 662.401 223.22 655.837C224.388 655.013 225.743 654.266 226.876 653.427L227.075 653.278C224.816 645.186 226.899 632.517 234.338 627.78C237.209 625.95 242.01 627.343 245.227 627.875C247.007 628.169 249.335 629.472 251.008 630.202C258.652 633.829 260.656 637.273 264.642 644.129C267.509 641.407 278.148 636.115 282.056 634.37C282.47 632.758 283.873 627.191 284.548 625.845C287.847 619.285 291.897 610.995 296.86 605.648C300.019 602.246 303.503 599.91 307.051 597.342C304.516 595.419 302.356 593.389 299.877 591.46C297.401 592.786 294.156 594.373 291.873 595.912C287.783 598.666 283.481 600.87 279.345 603.497C275.16 606.249 271.214 609.477 266.858 611.954C265.803 612.553 261.99 614.917 261.358 613.197C262.594 607.378 281.046 596.841 286.415 593.537C289.579 591.589 293.635 589.728 296.758 587.424C292.705 580.494 291.161 582.017 289.084 573.191C286.18 573.82 283.959 574.569 281.122 575.401C274.674 577.284 268.303 579.425 262.025 581.816C259.746 582.708 251.781 587.49 250.232 584.796C250.271 584.491 250.316 584.215 250.469 583.943C254.125 577.456 279.862 570.807 287.879 568.374C287.426 566.589 287.1 565.752 287.055 563.897C283.704 566.658 278 567.229 273.839 566.439C268.964 565.514 262.937 560.592 259.463 557.132C258.479 556.152 255.862 551.585 254.906 550.171C253.755 550.443 250.565 551.002 249.417 551.094C246.65 551.316 240.075 554.33 238.151 552.152C237.059 547.737 250.96 546.846 253.598 545.645C253.891 545.751 254.036 545.236 254.005 545.053C252.602 536.878 254.658 533.627 262.065 530.416C260.388 525.979 259.616 522.888 262.384 518.589C261.694 516.073 259.02 506.357 260.962 504.537C267.064 498.816 277.236 497.045 284.442 501.838C285.617 502.62 287.896 505.352 289.004 505.169C289.628 504.089 290.141 496.432 290.351 494.653C291.014 489.281 291.803 483.925 292.719 478.591C286.887 476.959 284.24 476.017 279.44 471.928C278.232 470.899 276.401 469.515 275.421 468.32C271.756 463.85 269.727 457.467 270.228 451.688C270.49 448.662 270.708 447.001 273.202 444.833C278.955 439.834 289.503 437.719 296.989 437.39C300.973 437.462 303.608 437.638 307.723 437.677C311.576 437.713 319.487 435.055 322.57 438.178C324.024 439.651 321.977 443.666 321.863 445.595C321.51 451.634 320.963 457.829 320.017 463.815C319.198 468.338 315.169 474.146 311.572 476.963C307.556 480.108 304.413 480.619 299.463 480.089C299.102 483.679 295.621 504.047 296.798 505.444C298.67 507.667 302.912 508.444 305.247 512.139C305.988 513.314 306.505 514.712 306.136 516.106C305.446 518.714 302.595 521.088 300.335 522.342C301.449 524.445 302.555 526.511 303.424 528.726C305.088 532.967 305.992 537.459 308.004 541.559C308.43 542.426 308.82 543.388 309.216 544.273C314.067 545.185 319.759 546.327 324.605 546.926C328.447 539.978 335.227 532.861 343.54 531.985C343.622 531.001 343.768 529.945 343.886 528.958C345.358 519.145 351.32 510.048 357.288 502.308C361.778 496.485 368.021 492.363 375.125 490.485C378.521 484.026 377.667 456.918 374.535 449.907Z"/>
</mask>
<path d="M374.535 449.907C373.081 451.394 371.6 453.697 370.294 455.455C366.574 460.457 363.262 465.328 359.839 470.572C357.312 474.446 354.902 478.038 352.15 481.925C347.75 488.143 340.149 500.011 331.809 500.733C329.535 500.796 326.87 500.071 325.266 498.478C323.56 496.783 322.576 494.241 322.767 491.838C323.272 485.485 325.019 477.992 326.729 471.858C329.451 462.617 333.476 454.028 338.149 445.628C339.996 442.307 341.73 438.364 343.88 435.27C348.413 428.782 352.91 421.51 358.285 415.74C362.62 411.09 370.508 406.566 376.749 405.458C381.543 404.607 383.294 405.027 387.877 402.931C393.334 400.436 400.882 399.985 405.145 404.928C409.159 409.261 410.053 416.685 411.247 422.287C411.685 425.782 411.587 429.46 411.93 432.944C412.545 439.165 412.727 445.072 412.443 451.317C411.964 461.896 408.726 472.029 407.719 482.554C407.552 484.299 407.158 486.12 407.068 487.848C410.946 488.657 413.601 490.148 417.14 491.84C418.324 488.449 419.513 486.791 421.408 483.767C428.824 471.953 438.24 461.42 448.911 452.44C451.336 450.399 453.683 448.116 456.812 446.618C464.428 442.973 473.039 450.699 480.905 451.327C485.568 451.699 491.602 457.65 492.964 461.632C495.091 466.83 496.754 473.044 498.478 478.453C499.351 481.193 499.573 484.571 500.161 487.408C502.318 498.405 501.983 509.513 500.227 520.531C499.415 525.101 498.734 530.518 497.133 534.866C493.895 543.663 486.65 551.345 476.578 546.64C468.248 542.75 463.414 529.461 459.346 521.589C457.617 518.244 456.485 508.947 455.73 505.016C455.373 501.934 455.433 497.816 454.944 494.644C452.903 495.555 450.592 497.649 448.86 499.071C445.111 502.147 442.995 506.121 440.134 509.937C443.948 511.796 443.754 516.402 444.604 519.822C445.838 524.778 444.902 528.91 445.133 533.632C453.78 537.935 457.146 547.14 457.016 556.373C467.912 561.299 481.005 570.22 475.69 584.138C482.771 588.618 498.024 595.666 501.752 603.206C499.368 604.373 478.055 590.748 474.102 589.175L473.815 589.059C470.458 594.609 466.959 598.93 462.4 603.544C461.278 604.679 458.087 607.449 457.532 608.172C457.851 608.881 461.1 611.714 461.98 612.586C465.172 615.746 474.567 625.772 475.038 629.872C474.828 630.368 474.564 630.828 474.309 631.301C472.607 631.262 467.923 626.955 466.794 625.664C462.273 620.506 457.972 615.409 452.664 611.006C443 616.146 435.99 615.67 425.633 613.952C430.75 621.507 446.179 648.79 444.541 657.281C444.487 657.558 444.391 657.763 444.234 657.996C441.216 659.085 435.458 642.591 434.465 640.538C430.048 631.416 425.058 622.587 420.092 613.754C418.829 618.388 417.033 622.838 415.641 627.429C414.86 630.005 415.11 632.898 414.404 635.419C413.093 640.104 410.749 644.826 408.639 649.199C405.634 655.419 401.19 661.132 396.609 666.247C392.546 671.182 386.633 674.279 382.976 678.968C385.696 683.398 386.041 687.413 384.768 692.362C382.481 701.252 375.304 706.295 366.231 703.638C360.977 702.1 358.576 700.932 355.843 696.159L355.62 695.769C353.852 696.729 352.027 697.589 350.275 698.527C346.209 700.703 342.461 703.243 337.726 701.166C336.427 699.555 335.841 697.504 337.902 695.901C339.054 695.008 341.626 695.063 342.946 694.272C346.663 692.514 350.25 690.411 353.98 688.704C355.381 684.064 357.867 679.682 362.017 676.975C364.097 675.619 365.157 675.278 367.128 673.538C370.824 673.186 372.95 673.795 376.499 674.674C380.56 670.884 385.681 667.075 389.62 663.05C397.032 655.478 402.896 645.92 406.751 636.065C408.081 633.04 407.819 629.562 408.495 626.475C409.156 623.455 410.716 620.014 411.822 617.072C412.81 614.453 413.632 609.303 415.789 607.719C414.143 605.02 412.841 603.019 410.992 600.429C408.159 600.201 402.847 600.021 403.053 595.96C403.128 594.483 404.955 594.255 406.076 594.058C403.698 591.428 401.59 588.936 398.786 586.6C397.302 585.364 390.184 582.614 393.123 580.046C394.676 578.691 397.858 579.862 399.203 580.993C403.837 584.671 408.463 589.018 412.171 593.623C414.576 592.895 416.973 592.651 419.377 592.06C421.799 591.464 424.335 590.287 426.615 589.253C420.074 584.796 413.679 580.989 405.998 578.715C403.83 578.074 401.299 577.246 403.815 574.444C404.316 573.887 405.132 574.005 405.783 574.053C408.069 574.182 409.913 575.537 411.721 576.176C419.137 578.799 424.606 582.069 431.072 586.402C435.208 583.119 438.66 579.669 441.219 574.963C427.496 571.201 413.344 568.377 399.046 569.926C397.404 570.105 394.804 573.222 393.71 568.83C393.575 568.289 394.185 567.278 394.607 566.952C399.304 563.789 411.658 564.64 417.315 565.055C422.627 565.445 428.723 566.848 433.953 567.829C436.411 568.289 440.262 569.569 442.771 570.158C443.821 565.54 444.101 560.419 441.637 556.078C440.178 553.503 436.642 551.563 433.784 550.939C431.889 550.525 430.034 551.598 428.498 549.541C427.965 548.829 428.093 547.822 428.117 546.919C430.595 545.09 432.164 545.049 435.203 545.099C437.068 536.973 439.471 531.938 438.276 523.076C437.728 519.008 438.153 518.192 435.93 514.285C434.855 513.819 433.483 513.369 433.159 512.152C432.213 508.609 435.521 504.645 437.38 502.115C441.268 496.823 445.557 492.335 451.359 489.165C452.362 488.614 453.385 488.262 454.413 487.764C453.71 484.566 453.786 481.973 453.817 478.727C451.566 479.847 449.876 481.772 447.947 483.323C443.392 486.932 439.396 490.583 435.785 495.127C433.938 497.452 431.054 503.118 428.958 504.497C427.47 505.475 424.07 503.01 426.09 499.4C428.906 494.366 432.265 490.304 436.082 485.985C439.786 482.372 449.046 474.36 453.604 472.689C453.882 472.587 454.162 472.489 454.445 472.397C454.615 470.173 454.62 466.669 456.459 465.084C457.066 464.563 458.384 464.005 459.176 464.274C459.059 464.63 459.043 464.598 459.118 464.979L459.91 464.692C460.575 465.311 460.742 465.632 461.25 466.403C461.175 472.371 459.55 478.23 460.824 484.36C461.037 485.386 460.862 486.347 461.525 487.228L461.554 486.901C462.078 487.594 461.947 487.657 461.729 488.477C461.083 490.906 461.815 493.677 461.859 496.164C462.278 508.034 464.741 519.368 470.802 529.692C471.572 531.005 472.864 532.734 473.51 534.095C475.303 537.872 480.377 543.476 484.964 540.83C489.529 538.197 491.734 531.728 492.606 526.841C494.385 518.452 495.425 509.725 495.151 501.157C494.805 497.799 494.576 494.204 493.982 490.877C493.549 488.452 493.326 484.419 492.515 482.213C490.158 475.811 488.824 467.876 485.676 461.928C482.921 457.465 477.102 457.654 472.777 456.112C469.336 454.885 466.044 452.887 462.629 452.05C458.835 451.121 453.192 457.173 450.419 459.592C442.961 466.098 435.789 473.729 429.87 481.665C427.273 485.198 425.038 489.055 422.524 492.775C421.007 495.011 420.25 499.423 416.579 499.013C414.546 498.786 411.803 496.292 409.742 495.593C406.255 494.411 400.825 494.185 400.389 489.191C400.164 486.608 401.411 482.805 401.582 480.129C402.058 477.169 402.191 474.096 402.669 471.25C403.64 465.466 405.369 458.587 405.78 452.766C406.128 447.824 405.597 441.085 405.443 435.954C405.363 433.344 405.366 428.875 405.122 426.361C404.372 421.018 403.354 415.041 400.952 410.188C400.446 409.166 398.779 407.783 397.646 407.675C390.857 407.057 386.822 411.913 379.667 411.514C376.012 411.311 370.984 413.317 367.774 415.748C358.676 422.639 351.957 434.944 345.988 444.618C343.603 448.485 342.372 452.328 339.858 456.124C337.502 461.324 334.869 467.265 333.148 472.732C331.934 477.832 330.95 483.233 329.696 488.304C329.354 489.687 328.865 494.75 330.872 494.411C336.986 493.38 343.841 482.061 346.924 477.515C352.516 469.266 356.956 462.385 362.779 454.449C365.523 450.706 368.438 446.389 371.689 443.047C375.18 439.457 380.27 435.889 384.713 433.687C387.442 432.334 393.182 429.813 395.693 432.547C396.144 433.034 396.367 433.689 396.306 434.35C396.081 436.932 392.706 437.835 390.666 438.323C393.82 444.978 395.057 458.796 395.357 466.446C395.315 470.682 394.998 474.921 394.705 479.152C394.455 482.748 394.421 486.414 393.286 489.859C392.701 491.635 390.948 492.628 389.173 491.998C388.426 491.736 387.819 491.181 387.493 490.462C386.688 488.722 388.203 485.496 388.343 483.63C388.998 474.966 389.745 466.031 388.426 457.401C388.109 455.326 388.076 453.174 387.753 451.095C387.029 447.355 386.53 444.308 386.088 440.524C383.174 442.3 381.36 443.594 378.642 445.776C384.179 456.32 383.81 471.786 383.436 483.545C383.319 487.193 381.736 489.91 381.838 494.047C378.754 497.351 379.133 495.918 374.771 497.139C373.517 497.491 370.539 499.164 369.388 499.958C362.027 505.037 356.121 514.603 352.178 522.508C350.776 525.314 349.837 528.948 348.27 531.644C349.491 532.305 351.772 533.487 352.118 534.951C352.933 538.383 347.948 537.536 346.226 537.695C339.49 538.316 334.631 542.75 331.315 548.336C336.492 549.329 347.155 552.571 351.405 556.501C353.36 558.308 350.246 561.247 347.976 559.272C345.673 557.658 331.297 552.123 329.331 552.791C327.82 554.5 327.545 558.93 327.318 561.222C333.422 560.646 336.269 560.496 342.237 561.879C346.099 566.008 338.197 565.453 336.319 565.454C333.625 565.458 330.25 565.433 327.61 565.752C328.677 567.816 330.111 570.649 331.393 572.579C333.89 571.864 349.617 565.217 348.159 571.846C347.863 573.198 336.778 574.795 335.731 576.522C336.441 577.919 344.663 581.659 346.606 582.377C349.09 583.296 351.178 582.809 353.521 584.341C354.626 586.302 354.977 589 356.428 590.676C357.879 592.351 360.669 593.793 362.678 594.75C364.309 595.332 365.548 595.606 367.296 595.747C370.567 599.841 364.334 600.853 361.459 599.743C356.14 598.903 351.33 594.274 349.284 589.462L347.855 589.27C341.134 588.393 333.132 582.96 327.91 578.915C327.025 579.149 326.187 579.499 325.344 579.852C319.912 582.127 314.376 584.18 309.118 586.846C308.119 587.355 307.078 587.759 306.012 588.106C308.039 590.239 309.388 590.052 311.843 593.191C312.839 592.725 314.148 591.955 315.142 591.403L317.66 592.127C317.91 592.489 318.605 593.515 318.747 593.871C319.493 595.742 316.204 598.243 314.941 599.392C311.972 602.095 308.184 604.161 305.128 606.758C298.217 612.628 292.898 622.807 289.445 631.185L290.17 630.82C295.195 628.239 305.261 627.009 310.942 627.164C312.898 623.146 320.278 619.423 323.761 616.139C325.821 614.196 333.693 610.545 336.632 609.967C342.175 608.874 349.899 611.147 355.21 612.958C356.998 613.6 358.268 614.771 359.9 615.691C365.427 618.806 369.982 626.348 371.034 632.408C371.644 635.917 371.024 642.579 369.699 645.922C369.001 647.681 367.628 649.64 366.647 651.294C363.838 656.787 360.802 660.774 354.786 663.2C350.657 662.333 349.689 661.441 351.252 657.215C352.459 656.193 356.146 653.961 356.718 653.335C359.453 650.327 361.87 645.093 364.246 641.431C364.41 634.328 364.867 630.617 360.156 624.702C356.976 620.288 353.012 619.575 348.571 617.821C339.5 614.238 334.162 617.591 326.626 622.813C324.247 624.461 321.856 626.035 319.451 628.007C324.798 629.136 333.768 632.395 337.868 636.131C341.383 639.399 343.47 643.919 343.678 648.713C343.748 650.397 344.161 657.918 340.858 656.895C337.023 655.709 337.73 646.613 335.357 643.765C334.285 642.478 333.34 641.056 331.982 640.034C328.121 637.419 321.629 635.331 317.126 634.393C313.963 633.802 311.251 634.15 308.048 634.262C294.351 634.733 281.807 642.348 270.185 648.929C268.289 650.002 265.489 652.818 263.554 654.23C262.179 654.265 261.477 654.15 260.117 653.966C257.91 651.659 258.545 649.484 257.717 646.683C255.473 639.105 245.96 633.982 238.481 633.962C234.722 636.009 233.53 640.34 233.364 644.306C233.258 646.832 232.753 649.955 234.301 652.154C235.372 653.677 237.704 654.932 237.47 657.064C237.067 661.401 233.338 659.459 230.427 660.216C228.532 660.709 227.463 661.524 225.982 662.748C225.695 663.398 225.431 664.298 225.206 664.989C226.054 667.282 227.593 669.67 229.889 670.67C231.781 671.493 235.148 671.416 236.739 672.69C238.421 674.038 239.341 677.316 240.952 678.88C243.015 680.865 245.427 678.212 247.721 678.303C250.972 677.995 256.228 679.295 259.294 678.3C267.165 675.749 271.891 671.455 280.414 670.373C288.082 669.4 303.392 667.495 309.186 673.515C309.767 676.746 309.564 677.765 306.291 678.096C306.182 678.599 306.218 678.877 306.326 679.371C307.8 686.153 310.721 687.158 315.666 690.599C318.996 688.455 321.446 686.499 323.646 691.102C322.978 693.263 322.779 693.497 321.007 694.815C324.017 696.878 329.685 697.926 330.916 701.051C330.642 708.169 318.233 701.211 315.374 699.494C308.368 705.149 302.735 713.561 296.08 719.685C295.66 720.071 294.75 722.539 294.377 723.252C292.924 726.074 290.184 727.895 287.745 729.761C281.627 734.442 276.246 732.506 272.204 726.497C264.529 734.049 258.253 733.622 255.267 722.39C250.296 723.886 245.873 724.039 241.361 720.966C239.129 719.445 237.869 717.066 237.463 714.423C237.065 711.982 237.676 709.486 239.156 707.502C242.758 702.622 248.113 700.671 253.809 699.833C254.891 698.93 256.836 696.575 257.952 695.413C262.697 690.465 267.286 685.228 272.028 680.282C266.94 682.506 262.594 685.136 256.634 685.056C254.634 685.028 250.694 684.522 248.921 684.828C245.915 685.343 244.276 687.002 240.683 686.319C237.413 685.699 234.105 680.988 232.391 678.229C231.122 677.94 229.836 677.692 228.593 677.244C219.784 674.062 213.906 662.401 223.22 655.837C224.388 655.013 225.743 654.266 226.876 653.427L227.075 653.278C224.816 645.186 226.899 632.517 234.338 627.78C237.209 625.95 242.01 627.343 245.227 627.875C247.007 628.169 249.335 629.472 251.008 630.202C258.652 633.829 260.656 637.273 264.642 644.129C267.509 641.407 278.148 636.115 282.056 634.37C282.47 632.758 283.873 627.191 284.548 625.845C287.847 619.285 291.897 610.995 296.86 605.648C300.019 602.246 303.503 599.91 307.051 597.342C304.516 595.419 302.356 593.389 299.877 591.46C297.401 592.786 294.156 594.373 291.873 595.912C287.783 598.666 283.481 600.87 279.345 603.497C275.16 606.249 271.214 609.477 266.858 611.954C265.803 612.553 261.99 614.917 261.358 613.197C262.594 607.378 281.046 596.841 286.415 593.537C289.579 591.589 293.635 589.728 296.758 587.424C292.705 580.494 291.161 582.017 289.084 573.191C286.18 573.82 283.959 574.569 281.122 575.401C274.674 577.284 268.303 579.425 262.025 581.816C259.746 582.708 251.781 587.49 250.232 584.796C250.271 584.491 250.316 584.215 250.469 583.943C254.125 577.456 279.862 570.807 287.879 568.374C287.426 566.589 287.1 565.752 287.055 563.897C283.704 566.658 278 567.229 273.839 566.439C268.964 565.514 262.937 560.592 259.463 557.132C258.479 556.152 255.862 551.585 254.906 550.171C253.755 550.443 250.565 551.002 249.417 551.094C246.65 551.316 240.075 554.33 238.151 552.152C237.059 547.737 250.96 546.846 253.598 545.645C253.891 545.751 254.036 545.236 254.005 545.053C252.602 536.878 254.658 533.627 262.065 530.416C260.388 525.979 259.616 522.888 262.384 518.589C261.694 516.073 259.02 506.357 260.962 504.537C267.064 498.816 277.236 497.045 284.442 501.838C285.617 502.62 287.896 505.352 289.004 505.169C289.628 504.089 290.141 496.432 290.351 494.653C291.014 489.281 291.803 483.925 292.719 478.591C286.887 476.959 284.24 476.017 279.44 471.928C278.232 470.899 276.401 469.515 275.421 468.32C271.756 463.85 269.727 457.467 270.228 451.688C270.49 448.662 270.708 447.001 273.202 444.833C278.955 439.834 289.503 437.719 296.989 437.39C300.973 437.462 303.608 437.638 307.723 437.677C311.576 437.713 319.487 435.055 322.57 438.178C324.024 439.651 321.977 443.666 321.863 445.595C321.51 451.634 320.963 457.829 320.017 463.815C319.198 468.338 315.169 474.146 311.572 476.963C307.556 480.108 304.413 480.619 299.463 480.089C299.102 483.679 295.621 504.047 296.798 505.444C298.67 507.667 302.912 508.444 305.247 512.139C305.988 513.314 306.505 514.712 306.136 516.106C305.446 518.714 302.595 521.088 300.335 522.342C301.449 524.445 302.555 526.511 303.424 528.726C305.088 532.967 305.992 537.459 308.004 541.559C308.43 542.426 308.82 543.388 309.216 544.273C314.067 545.185 319.759 546.327 324.605 546.926C328.447 539.978 335.227 532.861 343.54 531.985C343.622 531.001 343.768 529.945 343.886 528.958C345.358 519.145 351.32 510.048 357.288 502.308C361.778 496.485 368.021 492.363 375.125 490.485C378.521 484.026 377.667 456.918 374.535 449.907Z" fill="black"/>
<path d="M374.535 449.907C373.081 451.394 371.6 453.697 370.294 455.455C366.574 460.457 363.262 465.328 359.839 470.572C357.312 474.446 354.902 478.038 352.15 481.925C347.75 488.143 340.149 500.011 331.809 500.733C329.535 500.796 326.87 500.071 325.266 498.478C323.56 496.783 322.576 494.241 322.767 491.838C323.272 485.485 325.019 477.992 326.729 471.858C329.451 462.617 333.476 454.028 338.149 445.628C339.996 442.307 341.73 438.364 343.88 435.27C348.413 428.782 352.91 421.51 358.285 415.74C362.62 411.09 370.508 406.566 376.749 405.458C381.543 404.607 383.294 405.027 387.877 402.931C393.334 400.436 400.882 399.985 405.145 404.928C409.159 409.261 410.053 416.685 411.247 422.287C411.685 425.782 411.587 429.46 411.93 432.944C412.545 439.165 412.727 445.072 412.443 451.317C411.964 461.896 408.726 472.029 407.719 482.554C407.552 484.299 407.158 486.12 407.068 487.848C410.946 488.657 413.601 490.148 417.14 491.84C418.324 488.449 419.513 486.791 421.408 483.767C428.824 471.953 438.24 461.42 448.911 452.44C451.336 450.399 453.683 448.116 456.812 446.618C464.428 442.973 473.039 450.699 480.905 451.327C485.568 451.699 491.602 457.65 492.964 461.632C495.091 466.83 496.754 473.044 498.478 478.453C499.351 481.193 499.573 484.571 500.161 487.408C502.318 498.405 501.983 509.513 500.227 520.531C499.415 525.101 498.734 530.518 497.133 534.866C493.895 543.663 486.65 551.345 476.578 546.64C468.248 542.75 463.414 529.461 459.346 521.589C457.617 518.244 456.485 508.947 455.73 505.016C455.373 501.934 455.433 497.816 454.944 494.644C452.903 495.555 450.592 497.649 448.86 499.071C445.111 502.147 442.995 506.121 440.134 509.937C443.948 511.796 443.754 516.402 444.604 519.822C445.838 524.778 444.902 528.91 445.133 533.632C453.78 537.935 457.146 547.14 457.016 556.373C467.912 561.299 481.005 570.22 475.69 584.138C482.771 588.618 498.024 595.666 501.752 603.206C499.368 604.373 478.055 590.748 474.102 589.175L473.815 589.059C470.458 594.609 466.959 598.93 462.4 603.544C461.278 604.679 458.087 607.449 457.532 608.172C457.851 608.881 461.1 611.714 461.98 612.586C465.172 615.746 474.567 625.772 475.038 629.872C474.828 630.368 474.564 630.828 474.309 631.301C472.607 631.262 467.923 626.955 466.794 625.664C462.273 620.506 457.972 615.409 452.664 611.006C443 616.146 435.99 615.67 425.633 613.952C430.75 621.507 446.179 648.79 444.541 657.281C444.487 657.558 444.391 657.763 444.234 657.996C441.216 659.085 435.458 642.591 434.465 640.538C430.048 631.416 425.058 622.587 420.092 613.754C418.829 618.388 417.033 622.838 415.641 627.429C414.86 630.005 415.11 632.898 414.404 635.419C413.093 640.104 410.749 644.826 408.639 649.199C405.634 655.419 401.19 661.132 396.609 666.247C392.546 671.182 386.633 674.279 382.976 678.968C385.696 683.398 386.041 687.413 384.768 692.362C382.481 701.252 375.304 706.295 366.231 703.638C360.977 702.1 358.576 700.932 355.843 696.159L355.62 695.769C353.852 696.729 352.027 697.589 350.275 698.527C346.209 700.703 342.461 703.243 337.726 701.166C336.427 699.555 335.841 697.504 337.902 695.901C339.054 695.008 341.626 695.063 342.946 694.272C346.663 692.514 350.25 690.411 353.98 688.704C355.381 684.064 357.867 679.682 362.017 676.975C364.097 675.619 365.157 675.278 367.128 673.538C370.824 673.186 372.95 673.795 376.499 674.674C380.56 670.884 385.681 667.075 389.62 663.05C397.032 655.478 402.896 645.92 406.751 636.065C408.081 633.04 407.819 629.562 408.495 626.475C409.156 623.455 410.716 620.014 411.822 617.072C412.81 614.453 413.632 609.303 415.789 607.719C414.143 605.02 412.841 603.019 410.992 600.429C408.159 600.201 402.847 600.021 403.053 595.96C403.128 594.483 404.955 594.255 406.076 594.058C403.698 591.428 401.59 588.936 398.786 586.6C397.302 585.364 390.184 582.614 393.123 580.046C394.676 578.691 397.858 579.862 399.203 580.993C403.837 584.671 408.463 589.018 412.171 593.623C414.576 592.895 416.973 592.651 419.377 592.06C421.799 591.464 424.335 590.287 426.615 589.253C420.074 584.796 413.679 580.989 405.998 578.715C403.83 578.074 401.299 577.246 403.815 574.444C404.316 573.887 405.132 574.005 405.783 574.053C408.069 574.182 409.913 575.537 411.721 576.176C419.137 578.799 424.606 582.069 431.072 586.402C435.208 583.119 438.66 579.669 441.219 574.963C427.496 571.201 413.344 568.377 399.046 569.926C397.404 570.105 394.804 573.222 393.71 568.83C393.575 568.289 394.185 567.278 394.607 566.952C399.304 563.789 411.658 564.64 417.315 565.055C422.627 565.445 428.723 566.848 433.953 567.829C436.411 568.289 440.262 569.569 442.771 570.158C443.821 565.54 444.101 560.419 441.637 556.078C440.178 553.503 436.642 551.563 433.784 550.939C431.889 550.525 430.034 551.598 428.498 549.541C427.965 548.829 428.093 547.822 428.117 546.919C430.595 545.09 432.164 545.049 435.203 545.099C437.068 536.973 439.471 531.938 438.276 523.076C437.728 519.008 438.153 518.192 435.93 514.285C434.855 513.819 433.483 513.369 433.159 512.152C432.213 508.609 435.521 504.645 437.38 502.115C441.268 496.823 445.557 492.335 451.359 489.165C452.362 488.614 453.385 488.262 454.413 487.764C453.71 484.566 453.786 481.973 453.817 478.727C451.566 479.847 449.876 481.772 447.947 483.323C443.392 486.932 439.396 490.583 435.785 495.127C433.938 497.452 431.054 503.118 428.958 504.497C427.47 505.475 424.07 503.01 426.09 499.4C428.906 494.366 432.265 490.304 436.082 485.985C439.786 482.372 449.046 474.36 453.604 472.689C453.882 472.587 454.162 472.489 454.445 472.397C454.615 470.173 454.62 466.669 456.459 465.084C457.066 464.563 458.384 464.005 459.176 464.274C459.059 464.63 459.043 464.598 459.118 464.979L459.91 464.692C460.575 465.311 460.742 465.632 461.25 466.403C461.175 472.371 459.55 478.23 460.824 484.36C461.037 485.386 460.862 486.347 461.525 487.228L461.554 486.901C462.078 487.594 461.947 487.657 461.729 488.477C461.083 490.906 461.815 493.677 461.859 496.164C462.278 508.034 464.741 519.368 470.802 529.692C471.572 531.005 472.864 532.734 473.51 534.095C475.303 537.872 480.377 543.476 484.964 540.83C489.529 538.197 491.734 531.728 492.606 526.841C494.385 518.452 495.425 509.725 495.151 501.157C494.805 497.799 494.576 494.204 493.982 490.877C493.549 488.452 493.326 484.419 492.515 482.213C490.158 475.811 488.824 467.876 485.676 461.928C482.921 457.465 477.102 457.654 472.777 456.112C469.336 454.885 466.044 452.887 462.629 452.05C458.835 451.121 453.192 457.173 450.419 459.592C442.961 466.098 435.789 473.729 429.87 481.665C427.273 485.198 425.038 489.055 422.524 492.775C421.007 495.011 420.25 499.423 416.579 499.013C414.546 498.786 411.803 496.292 409.742 495.593C406.255 494.411 400.825 494.185 400.389 489.191C400.164 486.608 401.411 482.805 401.582 480.129C402.058 477.169 402.191 474.096 402.669 471.25C403.64 465.466 405.369 458.587 405.78 452.766C406.128 447.824 405.597 441.085 405.443 435.954C405.363 433.344 405.366 428.875 405.122 426.361C404.372 421.018 403.354 415.041 400.952 410.188C400.446 409.166 398.779 407.783 397.646 407.675C390.857 407.057 386.822 411.913 379.667 411.514C376.012 411.311 370.984 413.317 367.774 415.748C358.676 422.639 351.957 434.944 345.988 444.618C343.603 448.485 342.372 452.328 339.858 456.124C337.502 461.324 334.869 467.265 333.148 472.732C331.934 477.832 330.95 483.233 329.696 488.304C329.354 489.687 328.865 494.75 330.872 494.411C336.986 493.38 343.841 482.061 346.924 477.515C352.516 469.266 356.956 462.385 362.779 454.449C365.523 450.706 368.438 446.389 371.689 443.047C375.18 439.457 380.27 435.889 384.713 433.687C387.442 432.334 393.182 429.813 395.693 432.547C396.144 433.034 396.367 433.689 396.306 434.35C396.081 436.932 392.706 437.835 390.666 438.323C393.82 444.978 395.057 458.796 395.357 466.446C395.315 470.682 394.998 474.921 394.705 479.152C394.455 482.748 394.421 486.414 393.286 489.859C392.701 491.635 390.948 492.628 389.173 491.998C388.426 491.736 387.819 491.181 387.493 490.462C386.688 488.722 388.203 485.496 388.343 483.63C388.998 474.966 389.745 466.031 388.426 457.401C388.109 455.326 388.076 453.174 387.753 451.095C387.029 447.355 386.53 444.308 386.088 440.524C383.174 442.3 381.36 443.594 378.642 445.776C384.179 456.32 383.81 471.786 383.436 483.545C383.319 487.193 381.736 489.91 381.838 494.047C378.754 497.351 379.133 495.918 374.771 497.139C373.517 497.491 370.539 499.164 369.388 499.958C362.027 505.037 356.121 514.603 352.178 522.508C350.776 525.314 349.837 528.948 348.27 531.644C349.491 532.305 351.772 533.487 352.118 534.951C352.933 538.383 347.948 537.536 346.226 537.695C339.49 538.316 334.631 542.75 331.315 548.336C336.492 549.329 347.155 552.571 351.405 556.501C353.36 558.308 350.246 561.247 347.976 559.272C345.673 557.658 331.297 552.123 329.331 552.791C327.82 554.5 327.545 558.93 327.318 561.222C333.422 560.646 336.269 560.496 342.237 561.879C346.099 566.008 338.197 565.453 336.319 565.454C333.625 565.458 330.25 565.433 327.61 565.752C328.677 567.816 330.111 570.649 331.393 572.579C333.89 571.864 349.617 565.217 348.159 571.846C347.863 573.198 336.778 574.795 335.731 576.522C336.441 577.919 344.663 581.659 346.606 582.377C349.09 583.296 351.178 582.809 353.521 584.341C354.626 586.302 354.977 589 356.428 590.676C357.879 592.351 360.669 593.793 362.678 594.75C364.309 595.332 365.548 595.606 367.296 595.747C370.567 599.841 364.334 600.853 361.459 599.743C356.14 598.903 351.33 594.274 349.284 589.462L347.855 589.27C341.134 588.393 333.132 582.96 327.91 578.915C327.025 579.149 326.187 579.499 325.344 579.852C319.912 582.127 314.376 584.18 309.118 586.846C308.119 587.355 307.078 587.759 306.012 588.106C308.039 590.239 309.388 590.052 311.843 593.191C312.839 592.725 314.148 591.955 315.142 591.403L317.66 592.127C317.91 592.489 318.605 593.515 318.747 593.871C319.493 595.742 316.204 598.243 314.941 599.392C311.972 602.095 308.184 604.161 305.128 606.758C298.217 612.628 292.898 622.807 289.445 631.185L290.17 630.82C295.195 628.239 305.261 627.009 310.942 627.164C312.898 623.146 320.278 619.423 323.761 616.139C325.821 614.196 333.693 610.545 336.632 609.967C342.175 608.874 349.899 611.147 355.21 612.958C356.998 613.6 358.268 614.771 359.9 615.691C365.427 618.806 369.982 626.348 371.034 632.408C371.644 635.917 371.024 642.579 369.699 645.922C369.001 647.681 367.628 649.64 366.647 651.294C363.838 656.787 360.802 660.774 354.786 663.2C350.657 662.333 349.689 661.441 351.252 657.215C352.459 656.193 356.146 653.961 356.718 653.335C359.453 650.327 361.87 645.093 364.246 641.431C364.41 634.328 364.867 630.617 360.156 624.702C356.976 620.288 353.012 619.575 348.571 617.821C339.5 614.238 334.162 617.591 326.626 622.813C324.247 624.461 321.856 626.035 319.451 628.007C324.798 629.136 333.768 632.395 337.868 636.131C341.383 639.399 343.47 643.919 343.678 648.713C343.748 650.397 344.161 657.918 340.858 656.895C337.023 655.709 337.73 646.613 335.357 643.765C334.285 642.478 333.34 641.056 331.982 640.034C328.121 637.419 321.629 635.331 317.126 634.393C313.963 633.802 311.251 634.15 308.048 634.262C294.351 634.733 281.807 642.348 270.185 648.929C268.289 650.002 265.489 652.818 263.554 654.23C262.179 654.265 261.477 654.15 260.117 653.966C257.91 651.659 258.545 649.484 257.717 646.683C255.473 639.105 245.96 633.982 238.481 633.962C234.722 636.009 233.53 640.34 233.364 644.306C233.258 646.832 232.753 649.955 234.301 652.154C235.372 653.677 237.704 654.932 237.47 657.064C237.067 661.401 233.338 659.459 230.427 660.216C228.532 660.709 227.463 661.524 225.982 662.748C225.695 663.398 225.431 664.298 225.206 664.989C226.054 667.282 227.593 669.67 229.889 670.67C231.781 671.493 235.148 671.416 236.739 672.69C238.421 674.038 239.341 677.316 240.952 678.88C243.015 680.865 245.427 678.212 247.721 678.303C250.972 677.995 256.228 679.295 259.294 678.3C267.165 675.749 271.891 671.455 280.414 670.373C288.082 669.4 303.392 667.495 309.186 673.515C309.767 676.746 309.564 677.765 306.291 678.096C306.182 678.599 306.218 678.877 306.326 679.371C307.8 686.153 310.721 687.158 315.666 690.599C318.996 688.455 321.446 686.499 323.646 691.102C322.978 693.263 322.779 693.497 321.007 694.815C324.017 696.878 329.685 697.926 330.916 701.051C330.642 708.169 318.233 701.211 315.374 699.494C308.368 705.149 302.735 713.561 296.08 719.685C295.66 720.071 294.75 722.539 294.377 723.252C292.924 726.074 290.184 727.895 287.745 729.761C281.627 734.442 276.246 732.506 272.204 726.497C264.529 734.049 258.253 733.622 255.267 722.39C250.296 723.886 245.873 724.039 241.361 720.966C239.129 719.445 237.869 717.066 237.463 714.423C237.065 711.982 237.676 709.486 239.156 707.502C242.758 702.622 248.113 700.671 253.809 699.833C254.891 698.93 256.836 696.575 257.952 695.413C262.697 690.465 267.286 685.228 272.028 680.282C266.94 682.506 262.594 685.136 256.634 685.056C254.634 685.028 250.694 684.522 248.921 684.828C245.915 685.343 244.276 687.002 240.683 686.319C237.413 685.699 234.105 680.988 232.391 678.229C231.122 677.94 229.836 677.692 228.593 677.244C219.784 674.062 213.906 662.401 223.22 655.837C224.388 655.013 225.743 654.266 226.876 653.427L227.075 653.278C224.816 645.186 226.899 632.517 234.338 627.78C237.209 625.95 242.01 627.343 245.227 627.875C247.007 628.169 249.335 629.472 251.008 630.202C258.652 633.829 260.656 637.273 264.642 644.129C267.509 641.407 278.148 636.115 282.056 634.37C282.47 632.758 283.873 627.191 284.548 625.845C287.847 619.285 291.897 610.995 296.86 605.648C300.019 602.246 303.503 599.91 307.051 597.342C304.516 595.419 302.356 593.389 299.877 591.46C297.401 592.786 294.156 594.373 291.873 595.912C287.783 598.666 283.481 600.87 279.345 603.497C275.16 606.249 271.214 609.477 266.858 611.954C265.803 612.553 261.99 614.917 261.358 613.197C262.594 607.378 281.046 596.841 286.415 593.537C289.579 591.589 293.635 589.728 296.758 587.424C292.705 580.494 291.161 582.017 289.084 573.191C286.18 573.82 283.959 574.569 281.122 575.401C274.674 577.284 268.303 579.425 262.025 581.816C259.746 582.708 251.781 587.49 250.232 584.796C250.271 584.491 250.316 584.215 250.469 583.943C254.125 577.456 279.862 570.807 287.879 568.374C287.426 566.589 287.1 565.752 287.055 563.897C283.704 566.658 278 567.229 273.839 566.439C268.964 565.514 262.937 560.592 259.463 557.132C258.479 556.152 255.862 551.585 254.906 550.171C253.755 550.443 250.565 551.002 249.417 551.094C246.65 551.316 240.075 554.33 238.151 552.152C237.059 547.737 250.96 546.846 253.598 545.645C253.891 545.751 254.036 545.236 254.005 545.053C252.602 536.878 254.658 533.627 262.065 530.416C260.388 525.979 259.616 522.888 262.384 518.589C261.694 516.073 259.02 506.357 260.962 504.537C267.064 498.816 277.236 497.045 284.442 501.838C285.617 502.62 287.896 505.352 289.004 505.169C289.628 504.089 290.141 496.432 290.351 494.653C291.014 489.281 291.803 483.925 292.719 478.591C286.887 476.959 284.24 476.017 279.44 471.928C278.232 470.899 276.401 469.515 275.421 468.32C271.756 463.85 269.727 457.467 270.228 451.688C270.49 448.662 270.708 447.001 273.202 444.833C278.955 439.834 289.503 437.719 296.989 437.39C300.973 437.462 303.608 437.638 307.723 437.677C311.576 437.713 319.487 435.055 322.57 438.178C324.024 439.651 321.977 443.666 321.863 445.595C321.51 451.634 320.963 457.829 320.017 463.815C319.198 468.338 315.169 474.146 311.572 476.963C307.556 480.108 304.413 480.619 299.463 480.089C299.102 483.679 295.621 504.047 296.798 505.444C298.67 507.667 302.912 508.444 305.247 512.139C305.988 513.314 306.505 514.712 306.136 516.106C305.446 518.714 302.595 521.088 300.335 522.342C301.449 524.445 302.555 526.511 303.424 528.726C305.088 532.967 305.992 537.459 308.004 541.559C308.43 542.426 308.82 543.388 309.216 544.273C314.067 545.185 319.759 546.327 324.605 546.926C328.447 539.978 335.227 532.861 343.54 531.985C343.622 531.001 343.768 529.945 343.886 528.958C345.358 519.145 351.32 510.048 357.288 502.308C361.778 496.485 368.021 492.363 375.125 490.485C378.521 484.026 377.667 456.918 374.535 449.907Z" stroke="black" stroke-width="2" mask="url(#path-2-outside-1_161_274)"/>
<path d="M362.846 594.279C364.238 594.776 365.328 595.041 366.719 595.191L367.336 595.249L367.552 595.266L367.686 595.435C368.547 596.513 368.878 597.505 368.652 598.38C368.426 599.251 367.695 599.818 366.874 600.158C366.043 600.503 365.028 600.66 364.046 600.663C363.063 600.666 362.069 600.515 361.279 600.21L359.672 599.59L361.361 599.253C361.897 599.146 362.528 599.163 363.126 599.189C363.747 599.215 364.351 599.254 364.916 599.221C365.481 599.188 365.942 599.086 366.286 598.873C366.584 598.689 366.828 598.4 366.964 597.901C366.703 597.216 366.169 596.869 365.438 596.64C365.043 596.517 364.612 596.435 364.154 596.353C363.709 596.273 363.231 596.193 362.794 596.072L362.526 595.998L362.447 595.732L362.199 594.892L361.919 593.948L362.846 594.279Z" fill="black" stroke="black"/>
<path d="M344.172 528.549C344.509 528.785 344.746 528.942 344.93 529.147C345.023 529.25 345.103 529.364 345.183 529.498L345.443 529.968L345.501 530.075L345.503 530.197C345.507 530.409 345.514 530.528 345.518 530.638C345.522 530.733 345.526 530.862 345.485 531.001C345.448 531.128 345.38 531.237 345.335 531.31C345.282 531.399 345.21 531.516 345.107 531.707L345.026 531.856L344.87 531.926C344.479 532.1 344.136 532.253 343.757 532.435L342.969 532.814L343.041 531.943C343.125 530.948 343.274 529.872 343.389 528.899L343.487 528.07L344.172 528.549Z" fill="black" stroke="black"/>
<path d="M293.145 675.708C294.708 675.701 296.403 675.891 297.972 676.032C298.891 678.865 299.077 681.587 300.154 684.433C302.31 690.133 304.746 692.151 309.924 695.123C308.39 697.189 306.558 698.175 304.982 699.964C300.403 705.171 296.491 710.432 291.081 714.853C289.716 715.968 289.068 720.099 287.347 721.581C285.362 723.291 283.615 724.784 281.206 725.894C277.799 723.088 277.974 721.076 275.794 717.674C273.004 713.317 267.786 721.47 265.574 723.673C265.059 724.099 264.481 724.495 263.934 724.886C261.4 721.027 262.771 715.254 261.347 713.664C259.182 711.248 255.511 714.818 253.546 715.772C252.486 716.289 251.366 716.542 250.188 716.551C248.889 716.562 246.609 716.305 245.665 715.311C245.023 714.634 244.659 713.691 244.717 712.758C244.806 711.292 245.811 710.153 246.886 709.254C250.159 706.514 252.193 706.866 256.163 707.284C258.761 704.902 260.812 701.714 263.157 699.094C266.355 695.52 269.747 692.145 272.934 688.535C276.119 684.928 279.993 679.641 283.588 676.616C286.315 676.165 290.383 675.816 293.145 675.708Z" fill="#F0F0F0"/>
<path d="M314.726 443.607L315.048 443.708C315.378 444.377 315.197 448.202 315.113 449.065C314.469 455.622 314.401 463.126 310.498 468.744C309.055 470.821 305.77 473.257 303.261 473.525C299.863 474.156 297.06 472.511 294.076 471.785C289.182 470.592 287.543 469.34 283.626 466.264C278.171 461.746 276.715 456.379 277.798 449.466C284.916 444.274 294.842 444.05 303.234 444.37C307.293 444.524 310.721 444.208 314.726 443.607Z" fill="#F0F0F0"/>
<path d="M302.773 452.081C304.921 452.134 306.286 452.98 307.171 454.301C308.025 455.575 308.407 457.257 308.719 458.926C309.454 462.858 308.189 465.843 305.817 467.792C303.54 469.661 300.293 470.535 296.944 470.468L296.815 470.694L296.737 470.83L296.595 470.897C296.114 471.125 295.529 471.162 294.955 471.111C294.372 471.06 293.745 470.911 293.142 470.718C291.942 470.335 290.764 469.751 290.11 469.289L290.103 469.283L290.097 469.278L289.816 469.064C288.531 468.062 286.675 466.444 285.102 464.642C284.316 463.74 283.592 462.783 283.045 461.825C282.502 460.872 282.117 459.888 282.044 458.94C281.959 457.83 282.316 456.799 283.063 455.976C283.406 455.598 283.93 455.281 284.538 455.008C285.156 454.73 285.903 454.478 286.732 454.248C288.392 453.787 290.422 453.405 292.483 453.096C296.606 452.479 300.91 452.147 302.743 452.081L302.758 452.08L302.773 452.081Z" fill="black" stroke="black"/>
<path d="M274.864 506.202C281.285 506.083 282.47 509.306 285.99 513.703C287.394 515.424 289.125 516.643 290.549 518.374C296.766 525.932 298.241 534.399 301.505 543.273C298.398 543.012 294.868 542.588 291.772 542.577C285.581 542.557 279.3 542.661 273.122 543.049C270.743 543.198 268.368 543.41 266 543.685C264.668 543.837 261.823 544.278 260.644 544.188L260.361 543.776C260.178 542.146 259.918 541.058 260.824 539.739C262.659 537.068 265.698 535.495 268.402 537.931C269.935 539.312 272.411 539.627 274.328 539.201C275.848 538.864 275.918 538.011 275.98 536.581C275.984 532.387 271.005 531.631 268.912 528.914C268.067 527.817 267.486 525.454 267.072 524.051C270.661 525.425 274.645 528.366 278.655 526.165C280.92 524.922 280.274 521.958 280.552 520.122C281.384 514.628 277.864 512.447 273.048 511.474C271.846 511.231 269.345 512.408 267.997 512.777L267.789 512.634C267.66 511.204 267.486 509.779 267.27 508.36C270.245 507.646 271.277 506.607 274.864 506.202Z" fill="#F0F0F0"/>
<path d="M289.471 547.399C294.266 547.448 299.101 547.878 303.874 548.315C305.935 554.708 309.449 558.622 314.886 562.317C312.8 562.843 309.642 563.345 307.399 563.793C302.851 564.699 298.615 565.781 294.127 566.811C293.369 563.176 293.371 560.128 291.676 556.769C290.454 555.342 287.588 555.126 285.82 555.327C284.152 556.521 283.11 558.387 281.478 559.269C279.687 560.236 275.992 560.314 274.112 559.526C270.124 557.855 263.703 552.835 261.904 548.892C265.829 547.715 284.794 547.298 289.471 547.399Z" fill="#F0F0F0"/>
<path d="M447.224 576.855C452.149 578.444 456.969 580.542 461.738 582.556C463.633 583.356 465.374 584.671 467.283 585.377C465.393 590.156 458.747 597.314 454.72 600.71C453.724 601.671 453.05 602.224 451.96 603.081C446.835 598.525 441.773 594.703 436.68 590.307C440.132 588.084 445.693 580.637 447.224 576.855Z" fill="#F0F0F0"/>
<path d="M320.554 566.617C320.843 566.637 320.665 566.604 321.064 566.805C320.876 568.348 323.853 573.272 324.803 574.856C317.479 578.145 310.37 580.436 303.17 584.244L301.636 582.348C298.827 577.88 296.433 576.501 295.791 570.959C300.963 570.093 306.152 568.796 311.318 567.858C314.345 567.311 317.494 566.971 320.554 566.617Z" fill="#F0F0F0"/>
<path d="M442.998 539.907C444.258 540.968 445.531 542.006 446.565 543.298C451.818 549.86 448.611 557.397 450.892 560.195C452.347 561.979 455.095 562.937 457.122 563.932C460.731 565.704 464.982 568.05 467.408 571.354C469.136 573.707 470.353 576.882 469.739 579.84C469.655 580.252 469.565 580.292 469.24 580.518L468.563 580.328C462.974 577.08 454.884 574.128 448.775 572.115C450.672 566.488 450.475 558.908 447.628 553.688C445.907 550.53 444.23 549.231 441.396 547.242C442.374 544.199 442.724 543.045 442.998 539.907Z" fill="#F0F0F0"/>
<path d="M432.263 593.458C433.321 593.813 445.271 603.914 447.297 605.461C442.964 608.286 437.126 608.01 432.104 608.098C429.786 607.887 427.47 607.662 425.155 607.425C419.443 606.83 419.967 603.765 416.465 599.45C424.958 597.826 424.438 597.578 432.263 593.458Z" fill="#F0F0F0"/>
<path d="M376.932 683.109C379.78 684.636 378.343 690.331 377.349 692.725C375.086 698.181 368.841 697.759 364.351 695.771C362.822 694.866 362.285 694.278 361.246 692.919C363.405 691.479 365.831 690.574 367.973 689.294C371.005 687.486 374.138 685.257 376.932 683.109Z" fill="#F0F0F0"/>
<path d="M311.648 549.393C312.697 549.469 321.641 551.187 322.588 551.491C321.878 553.592 321.426 555.008 321.039 557.181L320.841 557.917L320.454 558.026C317.537 557.199 313.324 552.035 311.648 549.393Z" fill="#F0F0F0"/>
<path d="M292.55 511.021C293.451 511.475 297.978 514.349 298.386 514.997L297.979 515.139C297.261 515.394 297.123 515.501 296.502 515.898C295.442 513.97 293.837 512.963 292.55 511.021Z" fill="#F0F0F0"/>
<path d="M367.337 680.923L367.862 681.017L368.515 681.134L368.223 681.729C368.155 681.867 368.052 681.965 367.972 682.029C367.886 682.097 367.789 682.157 367.695 682.207C367.507 682.308 367.282 682.4 367.065 682.479C366.845 682.56 366.616 682.635 366.416 682.699C366.21 682.766 366.044 682.818 365.928 682.859L365.806 682.903L365.677 682.882L365.341 682.826L365.136 682.792L365.016 682.623L364.861 682.404L364.571 681.998L364.977 681.707C365.308 681.471 365.701 681.321 366.066 681.209C366.424 681.101 366.824 681.01 367.122 680.932L367.228 680.904L367.337 680.923Z" fill="black" stroke="black"/>
<path d="M381.613 499.741C382.072 499.705 382.858 499.778 383.753 499.906C384.671 500.037 385.756 500.232 386.833 500.454C387.91 500.677 388.986 500.93 389.885 501.177C390.767 501.419 391.53 501.669 391.947 501.897L391.948 501.897C394.966 503.553 396.802 507.13 397.802 510.223C399.531 509.247 401.487 508.608 403.522 508.501C409.353 508.193 414.112 507.211 419.238 511.515C421.17 513.138 422.753 515.872 423.892 518.734C425.035 521.605 425.76 524.675 425.932 527.029C426.127 529.702 425.777 533.261 425.1 536.746C424.465 540.016 423.534 543.262 422.468 545.695L422.253 546.17C422.09 546.52 421.679 547.163 421.168 547.911C420.648 548.675 420 549.586 419.337 550.49C418.021 552.285 416.615 554.104 416.052 554.68C411.535 559.306 405.354 561.857 399.014 562.169L398.977 562.172L398.94 562.168C397.968 562.072 396.483 561.794 395.029 561.449C393.578 561.105 392.114 560.683 391.197 560.288C388 558.914 385.97 557.684 384.423 556.014C382.967 554.444 381.971 552.515 380.8 549.816C377.655 551.326 373.855 552.023 370.151 551.793C366.258 551.551 362.43 550.283 359.569 547.817C352.889 542.058 352.378 533.255 354.884 524.967C357.39 516.677 362.951 508.74 368.68 504.522C372.175 501.95 377.301 500.039 381.613 499.74L381.613 499.741Z" fill="black" stroke="black"/>
<path d="M409.72 514.046C410.654 514.527 411.641 514.887 412.58 515.344C421.414 519.652 419.808 534.993 416.74 541.526C411.346 540.122 406.657 539.454 401.121 537.623C399.754 537.35 387.769 534.181 388.173 532.752C388.998 529.836 391.212 524.996 393.19 522.677C398.376 516.598 401.946 514.759 409.72 514.046Z" fill="#F0F0F0"/>
<path d="M384.336 505.73C385.324 505.838 387.634 506.269 388.557 506.546C391.521 509.654 391.549 510.305 392.881 514.279C391.762 515.609 389.668 517.512 388.336 518.89C385.03 522.304 383.647 526.76 381.899 531.177C379.945 530.225 376.437 529.436 374.007 528.485C369.391 527.201 366.824 526.224 362.469 524.084C364.559 518.983 365.669 516.641 369.444 512.551C372.978 508.72 379.142 505.84 384.336 505.73Z" fill="#F0F0F0"/>
<path d="M386.032 538.851C388.599 539.855 389.67 540.842 392.625 541.505C392.467 543.626 392.58 544.245 393.073 546.221C393.558 546.769 394.107 547.258 394.707 547.677C399.208 550.829 402.951 549.407 405.747 545.092C408.577 546.091 410.901 546.434 413.843 546.913C412.946 547.853 412.124 548.863 411.287 549.857C410.849 550.378 410.381 550.872 409.888 551.34C404.624 556.26 394.673 556.948 389.528 551.255C386.64 548.059 385.746 543.056 386.032 538.851Z" fill="#F0F0F0"/>
<path d="M360.399 529.577C362.657 530.364 364.27 531.204 366.331 532.406C366.348 532.589 366.368 532.771 366.388 532.953C366.636 535.235 367.234 537.483 369.171 538.787C375.537 543.068 378.105 536.706 379.55 536.495L380.032 536.879C380.292 537.647 379.761 540.761 379.634 541.721C379.013 544.933 373.429 545.259 370.8 545.083C360.943 544.425 359.925 537.163 360.399 529.577Z" fill="#F0F0F0"/>
<path d="M369.216 552.804C371.598 552.85 373.367 553.269 375.769 553.869C377.902 554.401 380.633 555.131 382.574 556.511C383.555 557.208 384.364 558.092 384.782 559.228C385.203 560.37 385.208 561.709 384.683 563.273C384.041 565.18 382.175 566.138 380.288 566.817C379.334 567.16 378.306 567.454 377.37 567.748C376.515 568.018 375.725 568.291 375.058 568.619C374.937 569.446 374.655 571.141 374.42 572.699C374.286 573.584 374.168 574.43 374.099 575.073C374.065 575.396 374.044 575.658 374.039 575.844C374.038 575.906 374.04 575.954 374.041 575.989C375.319 577.574 377.171 578.322 379.113 579.371C381.055 580.42 382.976 581.738 383.906 584.512L383.982 584.735L383.857 584.935C383.58 585.381 383.321 585.815 383.061 586.179C382.8 586.545 382.511 586.881 382.153 587.124C381.382 587.648 380.458 587.636 379.205 587.134L379.173 587.121L379.142 587.103C377.584 586.207 375.962 585.195 374.36 584.212C372.754 583.227 371.166 582.269 369.66 581.468L369.532 581.399L369.459 581.273C369.338 581.058 369.286 580.962 369.226 580.872L369.014 581.02L368.901 581.097L368.765 581.107C368.014 581.161 366.058 581.228 364.207 581.192C363.282 581.174 362.37 581.13 361.642 581.044C361.279 581.001 360.948 580.946 360.678 580.874C360.543 580.838 360.412 580.794 360.295 580.74C360.184 580.689 360.054 580.614 359.95 580.5C359.341 579.833 358.95 579.217 358.781 578.64C358.606 578.045 358.671 577.498 358.958 577.032C359.232 576.585 359.679 576.261 360.174 576.021C360.674 575.779 361.264 575.603 361.883 575.472C363.979 575.029 366.645 575.065 367.812 575.086C368.068 572.534 368.409 570.247 369.059 567.731C367.41 564.64 366.038 560.802 364.936 557.527C364.678 556.762 364.664 556.08 364.866 555.482C365.067 554.888 365.464 554.43 365.931 554.077C366.846 553.387 368.122 553.037 369.097 552.817L369.155 552.803L369.216 552.804Z" fill="black" stroke="black"/>
<path d="M370.834 558.159C372.354 558.435 377.929 559.906 378.656 561.13C378.223 561.642 378.241 561.503 377.475 561.741C375.65 562.201 374.535 562.572 372.762 563.226C372.287 560.996 371.978 560.123 370.834 558.159Z" fill="#F0F0F0"/>
<path d="M491.061 696.8C486.021 696.8 482.288 695.96 479.861 694.28C477.621 692.787 476.221 690.733 475.661 688.12C475.101 685.507 474.821 682.613 474.821 679.44V575.56C474.821 572.2 475.101 569.307 475.661 566.88C476.221 564.267 477.621 562.307 479.861 561C482.288 559.507 486.115 558.76 491.341 558.76C496.381 558.76 500.021 559.413 502.261 560.72C504.688 562.027 506.181 563.707 506.741 565.76C507.488 567.627 507.861 569.493 507.861 571.36L505.621 576.4C506.555 574.907 507.861 573.133 509.541 571.08C511.221 568.84 513.461 566.693 516.261 564.64C519.061 562.4 522.421 560.627 526.341 559.32C530.261 557.827 534.928 557.08 540.341 557.08C542.581 557.08 544.915 557.36 547.341 557.92C549.955 558.293 552.475 558.947 554.901 559.88C557.515 560.627 559.848 561.653 561.901 562.96C563.955 564.267 565.541 565.853 566.661 567.72C567.781 569.4 568.341 571.36 568.341 573.6C568.341 579.573 566.848 584.613 563.861 588.72C560.875 592.827 557.328 594.88 553.221 594.88C550.421 594.88 548.368 594.6 547.061 594.04C545.755 593.48 544.635 592.827 543.701 592.08C542.955 591.333 541.741 590.68 540.061 590.12C538.568 589.56 536.141 589.28 532.781 589.28C529.981 589.28 527.088 589.747 524.101 590.68C521.301 591.613 518.688 593.013 516.261 594.88C513.835 596.747 511.875 599.173 510.381 602.16C508.888 604.96 508.141 608.227 508.141 611.96V680C508.141 683.173 507.861 686.067 507.301 688.68C506.741 691.107 505.248 693.067 502.821 694.56C500.395 696.053 496.475 696.8 491.061 696.8ZM683.141 696.24C677.728 696.24 673.715 695.213 671.101 693.16C668.488 691.107 667.181 688.307 667.181 684.76L669.141 675.52C667.648 677.947 665.128 680.84 661.581 684.2C658.035 687.373 653.368 690.267 647.581 692.88C641.795 695.307 634.795 696.52 626.581 696.52C617.808 696.52 609.501 694.747 601.661 691.2C594.008 687.467 587.195 682.427 581.221 676.08C575.435 669.547 570.768 662.173 567.221 653.96C563.861 645.56 562.181 636.6 562.181 627.08C562.181 617.933 563.861 609.347 567.221 601.32C570.768 593.107 575.528 585.827 581.501 579.48C587.475 573.133 594.288 568.187 601.941 564.64C609.781 560.907 617.995 559.04 626.581 559.04C634.235 559.04 640.675 560.067 645.901 562.12C651.315 564.173 655.888 566.787 659.621 569.96C663.355 572.947 666.435 576.12 668.861 579.48L667.181 571.36C667.181 567.253 668.488 564.173 671.101 562.12C673.715 559.88 677.821 558.76 683.421 558.76C688.648 558.76 692.381 559.6 694.621 561.28C696.861 562.773 698.261 564.92 698.821 567.72C699.381 570.333 699.661 573.32 699.661 576.68V679.16C699.661 682.333 699.381 685.227 698.821 687.84C698.261 690.453 696.768 692.507 694.341 694C692.101 695.493 688.368 696.24 683.141 696.24ZM631.621 663.76C637.968 663.76 643.661 662.173 648.701 659C653.741 655.827 657.755 651.533 660.741 646.12C663.915 640.52 665.501 634.36 665.501 627.64C665.501 620.36 663.915 614.013 660.741 608.6C657.568 603.187 653.368 598.987 648.141 596C643.101 592.827 637.408 591.24 631.061 591.24C624.155 591.24 617.995 592.92 612.581 596.28C607.168 599.453 602.875 603.84 599.701 609.44C596.715 614.853 595.221 621.013 595.221 627.92C595.221 634.64 596.808 640.707 599.981 646.12C603.155 651.533 607.448 655.827 612.861 659C618.461 662.173 624.715 663.76 631.621 663.76ZM788.516 696.52C779.369 696.52 771.156 694.747 763.876 691.2C756.782 687.467 750.716 682.427 745.676 676.08C740.822 669.733 737.089 662.453 734.476 654.24C732.049 645.84 730.836 636.88 730.836 627.36C731.022 617.84 732.422 608.973 735.036 600.76C737.649 592.36 741.382 585.08 746.236 578.92C751.276 572.573 757.342 567.627 764.436 564.08C771.529 560.533 779.556 558.76 788.516 558.76C797.102 558.76 805.129 560.533 812.596 564.08C820.249 567.627 826.969 572.573 832.756 578.92C838.729 585.08 843.396 592.36 846.756 600.76C850.116 608.973 851.796 617.747 851.796 627.08C851.796 636.787 850.116 645.933 846.756 654.52C843.396 662.92 838.822 670.293 833.036 676.64C827.249 682.8 820.529 687.653 812.876 691.2C805.222 694.747 797.102 696.52 788.516 696.52ZM784.036 663.76C790.569 663.76 796.449 662.267 801.676 659.28C806.902 656.107 811.009 651.813 813.996 646.4C817.169 640.987 818.756 634.827 818.756 627.92C818.756 620.827 817.169 614.573 813.996 609.16C811.009 603.56 806.902 599.267 801.676 596.28C796.449 593.107 790.569 591.52 784.036 591.52C777.689 591.52 771.902 593.107 766.676 596.28C761.449 599.453 757.249 603.747 754.076 609.16C751.089 614.573 749.596 620.827 749.596 627.92C749.596 634.827 751.089 640.987 754.076 646.4C757.249 651.813 761.449 656.107 766.676 659.28C771.902 662.267 777.689 663.76 784.036 663.76ZM732.236 696.8C727.196 696.8 723.462 695.96 721.036 694.28C718.609 692.787 717.116 690.827 716.556 688.4C715.996 685.787 715.716 682.893 715.716 679.72V512.84C715.716 509.667 715.996 506.867 716.556 504.44C717.116 501.827 718.609 499.773 721.036 498.28C723.462 496.787 727.196 496.04 732.236 496.04C737.462 496.04 741.196 496.787 743.436 498.28C745.676 499.773 747.076 501.827 747.636 504.44C748.196 507.053 748.476 509.853 748.476 512.84V685.32C747.729 689.427 746.142 692.32 743.716 694C741.476 695.867 737.649 696.8 732.236 696.8ZM883.783 696.8C878.743 696.8 875.01 695.96 872.583 694.28C870.157 692.787 868.663 690.827 868.103 688.4C867.543 685.787 867.263 682.893 867.263 679.72V575.56C867.263 572.573 867.543 569.867 868.103 567.44C868.85 564.827 870.343 562.773 872.583 561.28C875.01 559.787 878.837 559.04 884.063 559.04C889.29 559.04 893.023 559.787 895.263 561.28C897.69 562.773 899.183 564.827 899.743 567.44C900.303 570.053 900.583 572.947 900.583 576.12V680C900.583 683.173 900.303 686.067 899.743 688.68C899.183 691.107 897.69 693.067 895.263 694.56C893.023 696.053 889.197 696.8 883.783 696.8ZM883.783 531.88C878.37 531.88 874.357 531.133 871.743 529.64C869.317 527.96 867.73 525.72 866.983 522.92C866.423 520.12 866.143 517.04 866.143 513.68C866.143 510.133 866.423 507.053 866.983 504.44C867.73 501.827 869.41 499.773 872.023 498.28C874.637 496.6 878.65 495.76 884.063 495.76C889.663 495.76 893.677 496.6 896.103 498.28C898.53 499.96 900.117 502.2 900.863 505C901.61 507.613 901.983 510.693 901.983 514.24C901.983 517.413 901.61 520.4 900.863 523.2C900.117 526 898.53 528.147 896.103 529.64C893.677 531.133 889.57 531.88 883.783 531.88ZM984.5 696.8C975.354 696.8 967.514 695.867 960.98 694C954.447 692.133 949.127 689.24 945.02 685.32C940.914 681.4 937.834 676.36 935.78 670.2C933.914 663.853 932.98 656.387 932.98 647.8V529.08C932.98 525.72 933.26 522.827 933.82 520.4C934.567 517.973 936.06 516.107 938.3 514.8C940.727 513.307 944.46 512.56 949.5 512.56C954.727 512.56 958.46 513.307 960.7 514.8C963.127 516.293 964.62 518.347 965.18 520.96C965.927 523.387 966.3 526.093 966.3 529.08V646.68C966.3 650.6 966.58 653.773 967.14 656.2C967.887 658.627 968.914 660.493 970.22 661.8C971.714 662.92 973.58 663.76 975.82 664.32C978.247 664.693 981.14 664.88 984.5 664.88C988.047 664.88 991.034 665.16 993.46 665.72C996.074 666.28 998.034 667.68 999.34 669.92C1000.65 671.973 1001.3 675.427 1001.3 680.28C1001.3 685.507 1000.46 689.333 998.78 691.76C997.287 694 995.234 695.4 992.62 695.96C990.194 696.52 987.487 696.8 984.5 696.8ZM921.5 561.56L950.34 561.84L988.98 560.72C992.154 560.72 994.954 561.093 997.38 561.84C999.994 562.4 1002.05 563.893 1003.54 566.32C1005.03 568.56 1005.78 572.293 1005.78 577.52C1005.78 582.373 1005.03 586.013 1003.54 588.44C1002.05 590.867 1000.09 592.453 997.66 593.2C995.234 593.76 992.434 594.04 989.26 594.04L951.74 593.48L920.66 593.76C915.994 593.573 912.727 592.267 910.86 589.84C909.18 587.227 908.34 583.027 908.34 577.24C908.34 571.827 909.367 567.907 911.42 565.48C913.66 562.867 917.02 561.56 921.5 561.56Z" fill="#D7D7D7"/>
</g>
<defs>
<clipPath id="clip0_161_274">
<rect width="1200" height="1200" fill="white"/>
</clipPath>
</defs>
</svg>
