<svg width="833" height="226" viewBox="0 0 833 226" fill="none" xmlns="http://www.w3.org/2000/svg">
<path d="M105.627 0.469418C116.792 -0.384134 135.873 0.183331 147.526 0.20283L694.851 0.195459C706.569 0.19483 720.13 -0.249322 731.584 1.24707C753.165 4.18322 773.431 13.3325 789.904 27.579C812.875 47.1899 826.959 75.2395 828.972 105.376C831.042 134.851 821.223 163.924 801.712 186.109C781.804 209.086 753.524 223.125 723.188 225.075C709.847 226.421 690.215 225.339 676.226 225.333H132.826C121.886 225.333 109.227 225.667 98.5238 224.27C77.6196 221.452 57.8945 212.935 41.5097 199.651C17.8406 180.089 3.19063 153.369 0.43553 122.737C-2.19117 93.0913 7.14011 63.6227 26.3523 40.8888C46.9166 16.3718 73.9742 3.19371 105.627 0.469418ZM137.748 23.8935C129.239 23.8752 113.047 23.0538 104.965 24.3394C79.981 27.5612 58.8473 37.9902 43.1632 58.1666C28.5052 76.8258 21.9551 100.59 24.9837 124.127C28.0307 147.783 40.5392 169.201 59.6511 183.473C87.1176 204.399 111.816 201.613 143.924 201.607L639.386 201.562L694.919 201.613C702.467 201.632 717.004 202.443 723.841 201.254C805.743 191.196 833.74 94.0996 770.444 42.5645C744.78 21.6694 720.111 23.88 689.441 23.8788L137.748 23.8935ZM185.496 87.2455C215.416 84.432 233.141 94.2529 230.443 126.989C229.523 138.16 230.123 157.023 233.805 167.71C228.968 167.867 212.023 168.805 208.76 166.886C207.028 164.61 206.921 162.364 206.376 159.496C193.416 172.988 170.293 173.503 156.279 161.351C150.351 154.577 148.281 143.462 152.492 135.38C161.278 118.529 184.135 122.793 199.302 118.585C201.179 118.069 203.861 116.17 204.309 114.107C206.565 102.345 189.131 101.697 182.463 106.533C179.293 108.829 179.19 110.107 178.44 113.579L178.26 114.446C170.05 114.427 161.839 114.32 153.631 114.132C156.889 94.4807 167.211 89.4043 185.496 87.2455ZM245.073 57.9012C253.648 57.8446 262.222 57.8664 270.796 57.9651C270.854 71.1263 270.816 84.2878 270.683 97.4483C275.787 92.3578 282.118 88.3118 289.369 87.345C329.964 81.9348 341.273 132.259 320.784 158.841C320.081 159.608 319.34 160.332 318.565 161.024C303.931 174.296 282.819 172.673 269.775 157.929L269.451 167.697C261.444 167.898 253.036 167.83 244.996 167.886L245.073 57.9012ZM620.302 65.4369C628.756 65.2853 637.216 65.3112 645.676 65.5131L645.669 88.6534L662.759 88.587L662.721 106.547L645.663 106.471C645.619 114.226 645.487 122.183 645.569 129.919C645.751 147.487 645.361 150.544 663.324 148.789L663.401 164.54L663.181 166.886C661.275 168.528 654.198 168.56 651.518 168.717C616.641 170.761 620.175 146.129 620.395 120.856C620.433 116.296 620.395 110.83 620.395 106.351L607.244 106.414L607.281 88.6153L620.415 88.5367L620.302 65.4369ZM415.027 65.4197L415.047 88.5453L432.337 88.7296L432.381 106.414L415.128 106.408C415.109 116.409 415.109 126.498 415.178 136.493C415.266 150.331 420.795 150.016 432.438 148.783L432.538 163.911C432.526 165.508 432.533 165.188 432.187 166.754C428.092 169.238 424.255 168.169 419.871 168.603C408.53 169.741 392.757 164.93 390.865 151.714C388.887 137.889 389.808 120.724 389.834 106.446L377.054 106.402L377.018 88.6386L389.827 88.5416L389.924 65.4062L415.027 65.4197ZM442.628 140.067C452.006 139.985 461.385 139.979 470.764 140.061C470.82 149.338 470.82 158.622 470.776 167.906L442.553 168.025L442.628 140.067ZM705.902 57.685C710.991 57.1202 719.828 57.5389 724.936 57.8484L724.948 75.8854C712.57 75.6521 707.375 73.9168 707.299 88.4691L725.004 88.5133L724.942 106.458L707.324 106.432C707.223 114.175 708.475 165.333 706.463 167.893C698.204 168.006 689.938 168.012 681.68 167.905L681.742 106.408L668.144 106.426L668.181 88.6878L681.66 88.6116C682 69.6599 684.963 60.201 705.902 57.685ZM576.849 88.6976C585.542 88.4756 594.625 88.6352 603.356 88.6755C601.676 95.2567 599.085 102.25 596.852 108.716L578.158 167.786C569.157 167.987 560.156 167.974 551.155 167.748C546.073 151.35 541.299 134.857 536.833 118.283C532.279 134.882 527.555 151.438 522.674 167.943C513.749 168.018 504.823 167.98 495.898 167.823C494.074 160.677 489.935 149.494 487.563 142.142C481.89 124.335 476.116 106.553 470.248 88.8094C478.877 88.4987 488.318 88.6987 497.023 88.732C501.696 105.068 506.955 124.107 510.478 140.455C515.447 123.554 519.831 105.81 524.775 88.7062L548.992 88.6583C551.753 101.728 559.395 126.661 563.257 140.191C566.673 124.12 572.434 104.816 576.849 88.6976ZM344.896 88.5981C352.671 88.5295 360.447 88.5201 368.222 88.5711L368.278 144.437C368.282 148.418 368.533 164.753 367.9 167.502L366.355 167.886C358.351 167.949 350.347 167.968 342.343 167.937C342.39 159.288 342.011 90.4681 342.876 88.8893L344.896 88.5981ZM134.653 87.8327C139.522 87.4277 141.956 87.4757 146.861 87.7185L146.879 110.679C144.565 110.453 142.241 110.333 139.915 110.321C114.434 110.082 117.154 129.19 117.319 147.72C117.377 154.35 117.327 161.194 117.326 167.83C108.808 167.968 100.289 167.95 91.7719 167.761C90.9082 143.545 91.6337 113.333 91.762 88.7025C99.9792 88.6296 108.197 88.6501 116.415 88.764L116.046 102.402C121.496 93.4787 124.553 90.6783 134.653 87.8327ZM204.707 131.221C196.377 135.058 164.729 135.354 179.488 151.595C194.962 158.872 207.441 147.663 204.707 131.221ZM287.532 106.075C272.696 108.207 268.978 119.888 270.927 133.556C272.379 143.739 277.98 149.224 288.068 150.734C303.608 148.325 305.984 134.914 303.815 121.082C302.368 111.862 296.743 106.987 287.532 106.075ZM342.36 57.9393C350.763 57.7009 359.737 57.8518 368.186 57.8619L368.216 79.2319C359.588 79.3332 350.96 79.305 342.333 79.1471L342.36 57.9393Z" fill="#DFE905"/>
<path d="M817.429 203.047C823.411 200.914 829.997 204.022 832.148 209.997C834.305 215.979 831.217 222.571 825.248 224.747C819.247 226.936 812.611 223.829 810.447 217.822C808.284 211.809 811.41 205.185 817.429 203.047Z" fill="#DFE905"/>
<path d="M819.04 204.991C822.217 204.173 825.582 205.129 827.859 207.488C830.136 209.853 830.966 213.25 830.029 216.395C829.098 219.54 826.544 221.936 823.355 222.672C818.499 223.798 813.643 220.804 812.461 215.961C811.285 211.124 814.216 206.23 819.04 204.991Z" fill="#DFE905"/>
<path d="M816.618 207.136C829.494 207.746 825.041 208.356 825.506 217.527C825.569 218.779 825.915 218.112 825.638 219.924L824.204 220.496C823.235 218.389 822.663 215.823 820.147 216.036C819.147 217.313 818.889 217.678 818.191 219.093L817.631 220.238C816.285 218.364 816.65 209.916 816.618 207.136Z" fill="#DFE905"/>
</svg>
