<svg width="196" height="196" viewBox="0 0 196 196" fill="none" xmlns="http://www.w3.org/2000/svg">
<g clip-path="url(#clip0_3_15)">
<g clip-path="url(#clip1_3_15)">
<path d="M112.645 -25.2245C115.268 -26.424 118.408 -27.1404 121.434 -26.952C124.459 -26.7636 127.421 -25.6628 129.578 -23.1776C131.57 -21.0274 132.748 -18.1588 133.566 -15.2597C134.279 -12.7352 134.75 -10.0599 135.215 -7.74891L135.414 -6.78212L135.423 -6.74403L135.428 -6.70497C135.634 -5.0555 135.713 -3.3709 135.78 -1.7245C135.848 -0.066114 135.904 1.54864 136.059 3.1173L136.16 4.19445C136.648 9.56474 136.78 14.717 136.533 20.1446C136.31 25.0818 135.443 29.9023 134.528 34.6573C133.61 39.4309 132.644 44.1282 132.187 48.9132C132.107 49.7447 131.973 50.5952 131.854 51.3985C131.775 51.9392 131.704 52.4637 131.652 52.9728C134.599 53.6925 136.852 54.8415 139.424 56.0939C140.446 53.4739 141.534 51.9171 143.079 49.4513L143.729 48.4278C150.5 37.8922 158.986 28.4856 168.556 20.4327C170.72 18.6114 173.002 16.3952 176.016 14.9532C179.894 13.0971 183.958 14.1801 187.73 15.6144C188.683 15.9767 189.637 16.37 190.573 16.754C191.514 17.1399 192.44 17.5172 193.358 17.8585C195.2 18.5433 196.957 19.0622 198.639 19.1964C201.085 19.3916 203.732 21.0061 205.863 22.921C207.988 24.8297 209.796 27.2151 210.505 29.2394L210.871 30.1554C212.674 34.7858 214.133 40.1716 215.6 44.7755C216.024 46.1079 216.285 47.5745 216.505 48.9972C216.701 50.2647 216.863 51.4817 217.077 52.6193L217.172 53.1017L217.174 53.1114C219.184 63.3564 218.867 73.6842 217.24 83.8898L217.239 83.8985L217.237 83.9054C216.504 88.0303 215.86 93.1451 214.351 97.2443C212.824 101.392 210.323 105.368 206.921 107.749C203.461 110.17 199.132 110.89 194.198 108.586C190.095 106.67 186.95 102.5 184.398 98.0675C181.861 93.659 179.737 88.6472 177.926 85.1417C177.057 83.46 176.38 80.4106 175.84 77.4669C175.565 75.9699 175.319 74.4575 175.099 73.1007C174.878 71.7367 174.685 70.5397 174.515 69.6525L174.508 69.6193L174.504 69.5851C174.336 68.1302 174.265 66.4352 174.183 64.7872C174.124 63.6158 174.058 62.4633 173.949 61.3946C173.434 61.7192 172.897 62.1061 172.354 62.5275C171.877 62.898 171.417 63.2781 170.972 63.6495L169.684 64.7237C168.045 66.0684 166.749 67.62 165.524 69.296C164.911 70.1358 164.322 70.9975 163.713 71.8819C163.292 72.4935 162.86 73.1137 162.412 73.7355C163.855 74.7717 164.593 76.249 165.036 77.7501C165.299 78.6399 165.467 79.5653 165.615 80.4318C165.767 81.317 165.894 82.1281 166.079 82.8722L166.186 83.3175C166.684 85.5367 166.74 87.578 166.695 89.5441C166.651 91.4978 166.516 93.2958 166.574 95.2228C174.407 99.395 177.491 107.795 177.521 116.113C182.428 118.381 187.823 121.552 191.471 125.765C195.161 130.026 197.077 135.387 194.887 141.843C196.389 142.763 198.226 143.796 200.233 144.935C202.517 146.23 205.006 147.653 207.4 149.167C209.793 150.68 212.114 152.296 214.062 153.985C216.001 155.668 217.625 157.468 218.56 159.359L218.969 160.186L218.14 160.592C217.755 160.78 217.326 160.765 217.014 160.726C216.669 160.682 216.283 160.583 215.88 160.453C215.07 160.192 214.068 159.765 212.954 159.236C210.72 158.175 207.927 156.651 205.111 155.061C202.298 153.471 199.421 151.793 197.052 150.44C195.005 149.27 193.371 148.364 192.414 147.914C189.607 152.447 186.664 156.118 182.987 159.922L182.205 160.723C181.669 161.266 180.649 162.187 179.738 163.024C179.275 163.448 178.835 163.856 178.48 164.196C178.411 164.263 178.348 164.328 178.288 164.386C178.32 164.419 178.352 164.455 178.387 164.491C178.704 164.822 179.116 165.222 179.556 165.636C180.406 166.436 181.4 167.329 181.812 167.737L182.432 168.359C184.02 169.972 186.537 172.657 188.816 175.43C190.118 177.013 191.356 178.641 192.301 180.125C193.221 181.57 193.95 183.009 194.085 184.18L194.112 184.42L194.019 184.643C193.804 185.151 193.528 185.63 193.31 186.035L193.042 186.531L192.479 186.519C192.116 186.51 191.754 186.395 191.439 186.262C191.113 186.123 190.767 185.936 190.424 185.724C189.736 185.299 188.983 184.735 188.267 184.151C186.84 182.989 185.463 181.666 184.899 181.022L184.898 181.023C180.858 176.412 177.075 171.938 172.475 168.037C168.161 170.254 164.363 171.292 160.476 171.574C157.036 171.824 153.556 171.478 149.646 170.88C152.209 174.922 156.19 181.845 159.593 188.843C161.574 192.918 163.373 197.043 164.582 200.653C165.187 202.459 165.65 204.153 165.913 205.66C166.174 207.155 166.251 208.528 166.032 209.662V209.664C165.955 210.063 165.807 210.364 165.609 210.658L165.442 210.909L165.158 211.011C164.365 211.296 163.638 210.939 163.135 210.545C162.614 210.137 162.112 209.529 161.643 208.846C160.695 207.467 159.718 205.546 158.821 203.584C157.919 201.612 157.078 199.554 156.408 197.879C155.725 196.169 155.246 194.925 155.036 194.492C151.307 186.789 147.127 179.312 142.917 171.823C142.476 173.254 141.998 174.667 141.516 176.067C140.795 178.159 140.068 180.216 139.435 182.305C139.107 183.386 138.99 184.551 138.876 185.814C138.765 187.041 138.655 188.377 138.304 189.633C137.071 194.037 134.873 198.46 132.945 202.455V202.456C130.134 208.277 125.992 213.593 121.765 218.316C119.827 220.669 117.459 222.573 115.227 224.38C113.144 226.065 111.186 227.662 109.636 229.512C111.901 233.477 112.209 237.176 111.168 241.53L111.058 241.974C109.96 246.241 107.667 249.663 104.478 251.688C101.276 253.72 97.2619 254.284 92.8643 252.996C90.4448 252.288 88.5619 251.634 86.9629 250.553C85.4403 249.523 84.2312 248.146 83.0137 246.105C82.4465 246.401 81.8783 246.69 81.3164 246.974C80.9032 247.182 80.494 247.389 80.0889 247.596L78.8848 248.225C75.3051 250.14 71.3942 252.81 66.542 250.683L66.3359 250.592L66.1953 250.418C65.5366 249.6 64.978 248.577 64.916 247.468C64.8504 246.293 65.3513 245.174 66.5098 244.273L66.5107 244.272C66.9004 243.97 67.3659 243.78 67.7998 243.644C68.2388 243.506 68.7143 243.404 69.1494 243.315C70.0968 243.119 70.7996 242.976 71.2393 242.713L71.2783 242.69L71.3193 242.669C73.007 241.871 74.6671 240.994 76.3525 240.109C77.912 239.291 79.4922 238.468 81.1035 237.717C82.4511 233.473 84.807 229.395 88.7451 226.826H88.7461C90.7972 225.49 91.589 225.292 93.3389 223.747L93.5625 223.55L93.8604 223.522C97.2567 223.198 99.321 223.725 102.306 224.469C104.101 222.819 106.095 221.166 108.045 219.516C110.141 217.742 112.194 215.966 113.972 214.15C120.69 207.286 126.018 198.606 129.524 189.645L129.532 189.626L129.539 189.609C130.092 188.351 130.327 186.971 130.495 185.488C130.658 184.05 130.762 182.446 131.086 180.965C131.713 178.101 133.202 174.805 134.184 172.192V172.191C134.395 171.63 134.602 170.92 134.833 170.108C135.06 169.31 135.308 168.425 135.591 167.569C135.873 166.715 136.202 165.856 136.601 165.104C136.856 164.622 137.155 164.157 137.512 163.758C136.258 161.722 135.191 160.086 133.779 158.095C132.531 158.001 130.762 157.867 129.278 157.347C128.434 157.05 127.596 156.603 126.98 155.894C126.344 155.16 126.004 154.212 126.063 153.056V153.055C126.122 151.891 126.915 151.264 127.64 150.945C127.765 150.89 127.895 150.842 128.025 150.799C126.24 148.807 124.575 146.959 122.468 145.203C122.208 144.987 121.644 144.668 120.833 144.207C120.074 143.776 119.17 143.255 118.388 142.686C117.636 142.138 116.848 141.443 116.488 140.614C116.296 140.171 116.214 139.662 116.352 139.13C116.487 138.607 116.81 138.158 117.245 137.777C118.298 136.859 119.766 136.887 120.922 137.151C122.104 137.422 123.269 138.004 124.011 138.62H124.012C128.153 141.907 132.3 145.781 135.693 149.903C136.647 149.645 137.59 149.457 138.508 149.284C139.629 149.073 140.697 148.887 141.771 148.623L142.171 148.52C143.678 148.107 145.238 147.456 146.764 146.776C141.252 143.1 135.826 140.021 129.428 138.127V138.126C128.933 137.98 128.367 137.811 127.852 137.594C127.347 137.382 126.799 137.088 126.395 136.651C125.953 136.174 125.702 135.537 125.832 134.78C125.951 134.09 126.369 133.403 126.996 132.704H126.997C127.435 132.217 127.992 132.06 128.444 132.016C128.865 131.974 129.314 132.024 129.558 132.042L129.557 132.041C130.767 132.112 131.832 132.504 132.76 132.919C133.754 133.363 134.465 133.765 135.257 134.045C141.963 136.416 146.961 139.357 152.693 143.175C155.901 140.574 158.589 137.857 160.681 134.373C148.458 131.083 135.971 128.715 123.396 130.078C123.217 130.098 122.941 130.216 122.449 130.465C122.033 130.675 121.457 130.98 120.881 131.127C120.266 131.284 119.502 131.299 118.811 130.773C118.174 130.287 117.767 129.462 117.497 128.379V128.378C117.415 128.047 117.461 127.727 117.521 127.492C117.584 127.244 117.685 127.005 117.795 126.794C118.003 126.396 118.316 125.963 118.653 125.702L118.676 125.684L118.7 125.667C119.932 124.838 121.595 124.312 123.397 123.973C125.215 123.631 127.254 123.465 129.296 123.404C133.379 123.283 137.563 123.578 140.162 123.769C145.115 124.132 150.813 125.442 155.563 126.332C156.742 126.553 158.233 126.966 159.682 127.379C160.78 127.692 161.856 128.004 162.799 128.253C163.542 124.49 163.598 120.578 161.85 117.233L161.659 116.885C161.09 115.88 160.076 114.942 158.846 114.177C157.622 113.416 156.249 112.867 155.042 112.604C154.714 112.532 154.367 112.52 153.962 112.529C153.593 112.538 153.092 112.568 152.642 112.548C152.162 112.526 151.632 112.447 151.1 112.199C150.561 111.949 150.074 111.551 149.641 110.971V110.972C149.246 110.444 149.128 109.846 149.093 109.344C149.06 108.868 149.098 108.332 149.107 107.984L149.12 107.536L149.48 107.27C150.7 106.369 151.749 105.872 152.897 105.625C153.807 105.429 154.751 105.401 155.817 105.408C157.532 98.2192 159.492 93.8853 158.457 86.2091C158.329 85.2557 158.256 84.4891 158.19 83.8429C158.124 83.1902 158.066 82.6721 157.965 82.1681C157.78 81.2441 157.441 80.306 156.56 78.7228C156.15 78.5513 155.633 78.3361 155.191 78.0607C154.648 77.7215 154.083 77.2184 153.823 76.4376L153.774 76.2775C153.248 74.3058 153.926 72.3165 154.826 70.6417C155.731 68.9584 156.978 67.3892 157.803 66.2667C161.423 61.3408 165.461 57.1001 170.957 54.0968C171.459 53.8216 171.958 53.6007 172.431 53.3976C172.683 53.2893 172.923 53.1855 173.16 53.0821C172.754 50.9141 172.712 49.0038 172.725 46.9484C172.293 47.2579 171.873 47.6015 171.449 47.9669C170.639 48.6656 169.731 49.5303 168.837 50.2491L168.831 50.254C164.675 53.546 161.059 56.8535 157.798 60.9571C156.986 61.9794 155.952 63.732 154.798 65.5196C154.236 66.3901 153.652 67.2545 153.08 67.9874C152.591 68.6142 152.069 69.2006 151.535 69.6075L151.305 69.7706C150.67 70.1875 149.915 70.1873 149.283 69.9962C148.643 69.8025 148.032 69.3913 147.564 68.8273C146.592 67.653 146.255 65.8428 147.36 63.8663C149.999 59.1488 153.143 55.3526 156.662 51.3702L156.685 51.3458L156.709 51.3214C158.435 49.6382 161.438 46.9453 164.54 44.4776C167.605 42.0395 170.89 39.7188 173.146 38.8917L173.359 38.8146C173.417 37.914 173.484 36.7914 173.682 35.7345C173.924 34.4348 174.399 33.0034 175.488 32.0646L175.489 32.0636C175.872 31.7346 176.423 31.4333 176.978 31.2452C177.504 31.0668 178.228 30.9241 178.881 31.1456L179.473 31.3468L179.476 31.3458L179.478 31.3478L179.743 31.4376L179.703 31.5568L179.887 31.7276C180.594 32.3859 180.808 32.7809 181.261 33.4679L181.417 33.7042L181.413 33.9855C181.378 36.7726 180.978 39.5869 180.748 42.253C180.515 44.9613 180.443 47.612 181.001 50.2989C181.06 50.5847 181.091 50.8572 181.114 51.0939C181.139 51.3454 181.153 51.5343 181.18 51.7296C181.186 51.7774 181.195 51.8232 181.203 51.8673L181.506 52.2677C181.745 52.5847 182.015 52.9699 182.028 53.4796C182.034 53.7084 181.987 53.9096 181.95 54.0509C181.931 54.1239 181.908 54.2031 181.888 54.2735C181.866 54.3474 181.845 54.4234 181.822 54.5079C181.567 55.4672 181.575 56.5338 181.672 57.7101C181.763 58.8191 181.95 60.1337 181.973 61.3068C182.342 71.7772 184.455 81.7351 189.565 90.8263L190.07 91.7023L190.069 91.7032C190.408 92.2816 190.86 92.9478 191.334 93.6749C191.792 94.3779 192.27 95.1355 192.597 95.8234L192.75 96.1329C193.555 97.6988 194.969 99.5598 196.619 100.792C198.383 102.109 200.19 102.565 201.839 101.614C203.715 100.532 205.166 98.6209 206.256 96.3575C207.341 94.103 208.029 91.578 208.42 89.3859L208.422 89.3712L208.425 89.3566C210.048 81.7044 210.992 73.7653 210.746 65.9864C210.425 62.8604 210.222 59.6422 209.686 56.6398C209.482 55.4997 209.322 53.9524 209.134 52.5401C208.963 51.2571 208.768 50.072 208.498 49.1886L208.379 48.8292C207.281 45.8453 206.415 42.4902 205.486 39.2853C204.551 36.0577 203.546 32.9547 202.153 30.3155C201.059 28.5614 199.351 27.6755 197.299 27.0587C196.263 26.7472 195.181 26.5155 194.065 26.2648C192.967 26.0179 191.836 25.7536 190.783 25.378C189.155 24.7977 187.557 24.0317 186.04 23.3478C184.499 22.6531 183.023 22.0319 181.542 21.6691C180.944 21.5227 180.183 21.6344 179.256 22.0323C178.337 22.4265 177.35 23.0615 176.353 23.8214C174.326 25.3648 172.494 27.2229 171.139 28.4044C164.327 34.347 157.776 41.3156 152.376 48.5568C149.992 51.8009 148.015 55.2331 145.646 58.7384L145.645 58.7394C145.343 59.1837 145.068 59.7554 144.747 60.4337C144.439 61.0849 144.092 61.8258 143.672 62.4933C143.251 63.163 142.717 63.8246 141.996 64.2862C141.299 64.7324 140.474 64.9612 139.511 64.8917L139.315 64.8732C138.7 64.8042 138.083 64.5725 137.515 64.2989C136.94 64.0224 136.356 63.6742 135.802 63.3321C134.782 62.7024 133.903 62.1269 133.15 61.8068L132.836 61.6857C132.074 61.4274 131.215 61.2237 130.257 60.9708C129.325 60.7251 128.326 60.4382 127.403 60.0245C126.477 59.6094 125.583 59.0477 124.89 58.2247C124.186 57.3894 123.73 56.3331 123.614 55.0079C123.498 53.6757 123.761 52.0866 124.039 50.6222C124.329 49.0957 124.637 47.6929 124.711 46.5372L124.714 46.4923L124.721 46.4503C124.934 45.1207 125.072 43.7601 125.213 42.381C125.353 41.0121 125.495 39.6216 125.721 38.2794C126.633 32.8431 128.197 26.6713 128.571 21.3712L128.621 20.5118C128.8 16.715 128.499 11.9801 128.327 7.85753L128.26 6.00402C128.184 3.54679 128.187 -0.46929 127.968 -2.74403C127.277 -7.65605 126.355 -13.0024 124.225 -17.3075V-17.3085C124.075 -17.6102 123.689 -18.0621 123.178 -18.4628C122.651 -18.8751 122.178 -19.0867 121.921 -19.1112C119.046 -19.372 116.748 -18.4863 114.206 -17.4823C111.688 -16.4876 108.941 -15.3814 105.426 -15.577C103.916 -15.661 102.051 -15.287 100.174 -14.5946C98.5386 -13.9915 96.9466 -13.1669 95.6387 -12.2616L95.0967 -11.87C91.0277 -8.78795 87.4566 -4.46646 84.2022 0.234486C80.9443 4.94029 78.055 9.94743 75.292 14.4259C74.2259 16.154 73.4163 17.879 72.5645 19.6554C71.729 21.3975 70.8553 23.1819 69.6836 24.963C67.5263 29.7247 65.1443 35.1046 63.5869 40.0431C63.0357 42.3625 62.5363 44.7513 62.0283 47.1534C61.5187 49.563 61.0018 51.9847 60.4209 54.3331C60.285 54.8824 60.1038 56.2716 60.1768 57.4581C60.214 58.0634 60.3124 58.4999 60.4356 58.7394C60.4535 58.7743 60.4704 58.7986 60.4824 58.8155C61.6518 58.6109 62.9428 57.9003 64.3037 56.7794C65.6638 55.6591 67.0248 54.1888 68.3213 52.5919C70.9209 49.3899 73.166 45.8031 74.6084 43.6759C79.7375 36.1103 83.8394 29.754 89.207 22.4386C91.6966 19.0431 94.4341 14.9903 97.4824 11.8575C100.773 8.47384 105.541 5.13369 109.708 3.06847C110.975 2.44037 113.006 1.50686 115.043 1.06066C117.014 0.628925 119.376 0.573137 120.891 2.22179H120.89C121.478 2.85926 121.769 3.71558 121.691 4.58019L121.692 4.58117C121.549 6.2174 120.4 7.23452 119.247 7.85851C118.48 8.27361 117.624 8.56284 116.862 8.77648C118.136 11.9297 119.028 16.2685 119.642 20.6124C120.328 25.4707 120.683 30.4377 120.822 33.9776L120.824 34.0001L120.823 34.0226C120.785 37.9513 120.491 41.8793 120.222 45.7599C119.998 48.9855 119.963 52.5212 118.873 55.8302C118.194 57.8946 116.086 59.1454 113.913 58.3761C112.991 58.0517 112.24 57.3668 111.836 56.4767V56.4757C111.565 55.8863 111.514 55.2341 111.547 54.6319C111.58 54.0211 111.703 53.3844 111.843 52.7882C111.979 52.208 112.155 51.5765 112.282 51.0714C112.419 50.5303 112.512 50.0892 112.538 49.7462C113.142 41.7523 113.816 33.6476 112.622 25.836C112.471 24.8455 112.388 23.8411 112.308 22.8751C112.226 21.8983 112.147 20.9581 112.004 20.0401V20.0392C111.432 17.0808 111.01 14.5832 110.644 11.7198C108.855 12.8549 107.47 13.852 105.691 15.2609C108.081 20.1354 109.202 25.9833 109.692 31.8771C110.206 38.0551 110.033 44.3633 109.861 49.7657C109.804 51.5573 109.384 53.1233 109.026 54.6114C108.664 56.1165 108.348 57.5949 108.392 59.3702L108.401 59.7462L108.146 60.0196C106.722 61.5455 105.939 62.1645 104.886 62.4259C104.441 62.5361 103.916 62.5849 103.413 62.6564C102.87 62.7336 102.179 62.8543 101.223 63.1222C100.756 63.2531 99.8664 63.6701 98.8994 64.1896C97.9546 64.6971 97.0385 65.2466 96.5479 65.5851C90.3958 69.8305 85.3132 77.6632 81.7217 84.5997L81.0234 85.9737C80.4051 87.2117 79.8871 88.6371 79.3213 90.128C78.8793 91.2928 78.4059 92.4929 77.8477 93.5968C78.2823 93.8426 78.7704 94.1344 79.2217 94.465C79.8866 94.9519 80.6548 95.6454 80.9648 96.5401C80.9814 97.1107 81.0214 97.677 81.083 98.2384C80.993 98.65 80.8052 99.0212 80.5088 99.338C79.9535 99.931 79.1585 100.18 78.4697 100.3C77.7585 100.424 76.9899 100.439 76.3428 100.436C75.645 100.432 75.1489 100.411 74.8125 100.442C69.4535 100.937 65.4163 104.237 62.4932 108.685C64.8392 109.214 67.9046 110.083 70.8926 111.192C74.4411 112.508 78.0183 114.207 80.1143 116.145C80.7634 116.745 81.0442 117.506 80.9639 118.271C80.8869 119.002 80.4913 119.64 79.9746 120.091C78.9443 120.99 77.219 121.308 75.7861 120.106C75.3312 119.794 74.208 119.24 72.6543 118.568C71.1077 117.9 69.2174 117.151 67.335 116.466C65.4499 115.78 63.5877 115.165 62.0957 114.76C61.3482 114.557 60.7122 114.413 60.2217 114.337C60.0005 114.303 59.8222 114.285 59.6856 114.279C59.5202 114.535 59.3612 114.872 59.2148 115.29C59.0146 115.863 58.8562 116.533 58.7295 117.245C58.5534 118.235 58.4482 119.253 58.3633 120.145C62.964 119.73 65.6465 119.662 70.2441 120.642L71.2676 120.869L71.54 120.934L71.7314 121.138C72.636 122.105 73.2468 123.194 72.7959 124.244C72.5826 124.741 72.1846 125.066 71.7969 125.279C71.4078 125.493 70.9578 125.634 70.5147 125.731C68.7986 126.106 66.3818 125.971 65.6191 125.972C63.5676 125.974 61.1568 125.964 59.0547 126.116C59.8121 127.579 60.6694 129.204 61.4795 130.508C62.1452 130.277 63.1351 129.915 64.3555 129.495C66.0224 128.922 68.0409 128.273 69.957 127.838C71.8305 127.412 73.7656 127.151 75.1895 127.475C75.9224 127.642 76.6425 127.992 77.0918 128.678C77.5447 129.37 77.6026 130.22 77.4033 131.127C77.3259 131.48 77.1051 131.718 76.9512 131.854C76.7854 132 76.5922 132.12 76.4063 132.219C76.0321 132.417 75.5506 132.602 75.0322 132.776C73.9895 133.124 72.6249 133.482 71.2871 133.839C69.9293 134.201 68.5905 134.564 67.5332 134.931C67.1384 135.068 66.7983 135.2 66.5215 135.326C66.7015 135.453 66.9113 135.591 67.1484 135.738C67.9434 136.231 68.9785 136.788 70.0654 137.334C72.2437 138.428 74.5459 139.437 75.3955 139.751H75.3965C76.4299 140.133 77.3492 140.216 78.4541 140.398C79.5379 140.575 80.704 140.842 81.9385 141.65L82.127 141.773L82.2363 141.968C82.7936 142.957 83.1644 144.139 83.5176 145.118C83.8915 146.155 84.2593 147.014 84.8037 147.643C85.3787 148.307 86.2596 148.965 87.2686 149.58C88.2517 150.18 89.3047 150.707 90.209 151.139C90.1945 151.134 90.1796 151.129 90.165 151.124L88.46 150.515L88.9736 152.252L89.2031 153.024L89.3467 153.513L89.8389 153.65C90.2662 153.768 90.7326 153.846 91.1328 153.917C91.5544 153.992 91.9243 154.063 92.2559 154.167C92.7901 154.334 93.119 154.551 93.3057 154.917C93.2085 155.17 93.0731 155.302 92.9316 155.39C92.7104 155.526 92.3749 155.613 91.8857 155.642C91.3959 155.67 90.8738 155.638 90.2871 155.612C89.7442 155.589 89.1101 155.569 88.5547 155.68L85.4492 156.3L88.4033 157.44C88.433 157.451 88.4639 157.46 88.4941 157.471C83.4381 156.627 78.9766 152.408 76.9092 147.971L76.1035 147.863V147.862C72.8421 147.436 69.3376 145.92 66.0869 144.084C62.9869 142.333 60.0565 140.252 57.6973 138.442C57.2871 138.572 56.8796 138.728 56.458 138.901L55.8818 139.14C50.8403 141.252 45.8181 143.11 41.0234 145.541L41.0244 145.542C40.5277 145.795 40.0223 146.019 39.5127 146.223C39.9251 146.533 40.3344 146.794 40.8018 147.112C41.5673 147.635 42.3797 148.259 43.3584 149.405C44.1125 149.012 44.9655 148.517 45.7002 148.109L46.0332 147.924L46.4004 148.029L48.7148 148.694L49.0293 148.785L49.2158 149.055C49.335 149.227 49.5602 149.555 49.7725 149.885C49.9627 150.181 50.2106 150.579 50.3154 150.842C50.6084 151.577 50.4727 152.311 50.21 152.918C49.9495 153.519 49.5289 154.085 49.0928 154.578C48.2339 155.549 47.0982 156.467 46.5801 156.939C45.1644 158.227 43.5628 159.355 42.0029 160.437C40.4262 161.53 38.8958 162.574 37.5332 163.732V163.733C31.9349 168.488 27.4508 176.476 24.3027 183.651C26.5943 182.751 29.484 182.082 32.3643 181.625C35.7087 181.095 39.1294 180.839 41.7471 180.865C42.2666 179.997 42.9894 179.177 43.8018 178.409C44.7831 177.482 45.9382 176.586 47.1094 175.731C49.5052 173.981 51.894 172.446 53.4395 170.989L53.6631 170.789C54.2175 170.318 55.0041 169.805 55.877 169.297C56.8916 168.707 58.0827 168.091 59.292 167.519C61.6809 166.387 64.2555 165.37 65.7285 165.08L66.2441 164.988C68.8501 164.581 71.8333 164.879 74.708 165.454C77.7895 166.071 80.8304 167.025 83.2852 167.862L83.292 167.864L83.2998 167.867C84.2229 168.199 84.997 168.661 85.7022 169.123C86.4315 169.601 87.0376 170.041 87.7529 170.444L88.2568 170.743C90.7615 172.295 92.9944 174.726 94.7344 177.416C96.5928 180.289 97.9367 183.532 98.4453 186.46C98.7458 188.189 98.7364 190.62 98.5078 192.977C98.2794 195.332 97.8211 197.73 97.166 199.382C96.4931 201.08 95.1542 203.009 94.3106 204.428C91.6806 209.564 88.7531 213.44 82.9424 215.783L82.6826 215.888L82.4092 215.831C81.4493 215.63 80.61 215.414 79.9307 215.129C79.2486 214.843 78.6407 214.449 78.2422 213.84C77.8354 213.218 77.73 212.499 77.8018 211.729C77.8721 210.974 78.118 210.105 78.4863 209.109L78.5703 208.881L78.7549 208.725C79.3609 208.212 80.5462 207.427 81.5713 206.742C82.0993 206.39 82.5972 206.056 82.9951 205.776C83.1937 205.636 83.3599 205.514 83.4883 205.414C83.5523 205.364 83.6027 205.322 83.6406 205.289C83.6774 205.257 83.6933 205.241 83.6953 205.239C84.8803 203.936 86.022 202.119 87.1641 200.151C88.2368 198.302 89.321 196.302 90.3838 194.636C90.4614 191.447 90.5791 189.15 90.1924 186.974C89.8062 184.801 88.9051 182.726 86.8164 180.104L86.8037 180.086L86.79 180.067C84.0685 176.291 80.7969 175.739 76.5469 174.06C72.5491 172.481 69.451 172.451 66.5352 173.343C63.5586 174.253 60.7133 176.136 57.2295 178.55C55.5214 179.733 53.8456 180.85 52.1689 182.119C54.3586 182.696 56.9033 183.536 59.3584 184.557C62.337 185.795 65.2677 187.329 67.2734 189.021L67.6611 189.36L67.668 189.367C70.9707 192.437 72.9735 196.647 73.2793 201.134L73.3037 201.569V201.571C73.3348 202.324 73.4529 204.535 73.1602 206.444C73.0166 207.381 72.7556 208.386 72.2324 209.11C71.9594 209.488 71.5878 209.826 71.0928 210.007C70.5907 210.19 70.0543 210.177 69.5195 210.011V210.01C68.2859 209.628 67.51 208.634 66.9912 207.552C66.4717 206.468 66.1361 205.146 65.8594 203.863C65.5726 202.534 65.3544 201.275 65.0586 200.126C64.7607 198.969 64.431 198.132 64.0273 197.648C62.9612 196.368 62.2193 195.229 61.0938 194.377C57.6883 192.078 51.8729 190.195 47.7842 189.343C45.0155 188.828 42.6892 189.133 39.6543 189.239V189.24C27.3343 189.665 16.0172 196.517 5.25977 202.609C4.48087 203.05 3.47018 203.881 2.37305 204.825C1.3149 205.736 0.181006 206.748 -0.748043 207.426L-0.979488 207.595L-1.26562 207.602C-2.61315 207.635 -3.32895 207.519 -4.57421 207.35L-4.8916 207.307L-5.11425 207.075C-6.28698 205.85 -6.70755 204.636 -6.93261 203.43C-7.03837 202.863 -7.10747 202.25 -7.18554 201.709C-7.26697 201.145 -7.36576 200.585 -7.53808 200.003C-8.48596 196.802 -10.9993 194.043 -14.1797 192.069C-17.28 190.145 -20.9182 189.032 -24.1103 188.971C-26.9644 190.657 -27.9849 194.114 -28.1309 197.595C-28.1831 198.843 -28.3182 200.027 -28.2705 201.241C-28.224 202.424 -28.0005 203.443 -27.4355 204.245L-27.2754 204.457C-27.1013 204.671 -26.8865 204.894 -26.6367 205.144C-26.3222 205.458 -25.935 205.828 -25.5957 206.208C-24.9145 206.971 -24.2155 208.002 -24.3594 209.372C-24.4641 210.498 -24.7986 211.375 -25.4248 211.984C-26.048 212.591 -26.8289 212.804 -27.5439 212.885C-28.2366 212.963 -29.0209 212.928 -29.6699 212.921C-30.3642 212.914 -30.9753 212.935 -31.5176 213.076H-31.5186C-32.9897 213.459 -33.8354 214.061 -35.0781 215.081C-35.2503 215.51 -35.4133 216.034 -35.5762 216.546C-34.8176 218.451 -33.566 220.221 -31.8779 220.956H-31.8789C-31.1321 221.281 -30.0806 221.429 -28.8193 221.669C-27.6774 221.886 -26.308 222.19 -25.3711 222.94H-25.3701C-24.4248 223.697 -23.7439 224.943 -23.1768 225.989C-22.5592 227.129 -22.0492 228.087 -21.4346 228.686C-21.1172 228.991 -20.8297 229.089 -20.5439 229.106C-20.2205 229.124 -19.8373 229.042 -19.3457 228.869C-19.1038 228.784 -18.8565 228.684 -18.5869 228.576C-18.3239 228.471 -18.0385 228.356 -17.75 228.254C-17.1988 228.06 -16.5592 227.884 -15.8838 227.898C-14.2923 227.756 -12.2343 227.995 -10.3926 228.137C-8.43176 228.288 -6.69993 228.332 -5.49023 227.94L-4.83398 227.72C-1.5939 226.6 1.05132 225.172 3.88575 223.832C6.89186 222.411 10.0394 221.129 14.0977 220.613C17.6162 220.167 22.9657 219.495 28.1133 219.64C30.6886 219.712 33.248 219.99 35.5234 220.616C37.6521 221.203 39.5882 222.109 41.0469 223.493L41.332 223.776L41.5254 223.978L41.5742 224.252C41.7088 225 41.8091 225.677 41.8213 226.265C41.8334 226.852 41.7612 227.444 41.4717 227.967C40.9768 228.861 40.0386 229.242 38.9033 229.435C38.9131 229.485 38.9238 229.541 38.9375 229.604V229.605C39.5865 232.591 40.5287 234.209 41.7861 235.463C43.0211 236.695 44.5388 237.582 46.6416 239.019C47.2143 238.646 47.7875 238.275 48.3301 237.969C49.0342 237.572 49.7866 237.226 50.5586 237.118C51.3732 237.005 52.1851 237.16 52.9375 237.708C53.6545 238.23 54.257 239.064 54.7949 240.19L54.9502 240.515L54.8438 240.858C54.5423 241.833 54.3067 242.528 53.8799 243.121C53.6786 243.401 53.4414 243.646 53.165 243.89C53.5318 244.079 53.9281 244.266 54.3477 244.454C55.1935 244.834 56.2061 245.252 57.0977 245.669C58.0119 246.097 58.9258 246.578 59.6943 247.16C60.4642 247.744 61.1398 248.468 61.5059 249.397L61.5762 249.577L61.5693 249.77C61.5327 250.721 61.2887 251.537 60.8037 252.174C60.3138 252.818 59.6419 253.196 58.9102 253.385C57.5053 253.747 55.7653 253.443 54.1279 252.944C51.194 252.051 48.0551 250.355 46.4463 249.421C43.4881 251.893 40.7789 254.91 38.0615 258.028C35.2226 261.286 32.3656 264.663 29.2715 267.516C29.2663 267.523 29.2544 267.541 29.2354 267.571C29.1946 267.637 29.1416 267.73 29.0791 267.854C28.9539 268.101 28.8117 268.419 28.6631 268.762C28.3871 269.399 28.0612 270.197 27.8682 270.567L27.8691 270.568C26.4143 273.395 23.6685 275.214 21.5137 276.863C18.5445 279.135 15.619 279.894 12.8721 279.212C10.449 278.61 8.32769 276.923 6.52832 274.526C3.24012 277.555 0.00897892 279.195 -2.91601 278.624C-5.95159 278.031 -8.13843 275.184 -9.54394 270.493C-13.923 271.667 -18.035 271.652 -22.2139 268.807H-22.2148C-24.5183 267.237 -25.785 264.799 -26.1885 262.17V262.169C-26.5918 259.681 -25.9687 257.137 -24.4609 255.116C-20.999 250.429 -15.9052 248.557 -10.6582 247.748C-10.2315 247.359 -9.65751 246.744 -9.04101 246.058C-8.35891 245.299 -7.63085 244.463 -7.10449 243.914L-5.48144 242.202C-3.86245 240.48 -2.25637 238.729 -0.646481 236.972C0.439753 235.786 1.52807 234.598 2.62207 233.418C-0.49158 234.811 -3.7285 236 -7.66504 235.946C-8.61364 235.933 -10.0393 235.806 -11.334 235.725C-12.6968 235.639 -13.8983 235.605 -14.5879 235.724H-14.5898C-15.8913 235.947 -16.778 236.385 -18.0498 236.791C-19.2857 237.185 -20.6488 237.442 -22.4912 237.092V237.091C-24.3088 236.746 -25.9949 235.318 -27.3496 233.823C-28.6229 232.418 -29.7281 230.811 -30.5195 229.561C-31.5476 229.333 -32.6677 229.098 -33.7471 228.71L-33.748 228.709C-38.0484 227.156 -41.6389 223.542 -43.0264 219.465C-43.7243 217.413 -43.8721 215.217 -43.2373 213.106C-42.6004 210.987 -41.1965 209.022 -38.9072 207.408L-38.4795 207.115C-38.0462 206.826 -37.5994 206.547 -37.1738 206.279C-36.7173 205.992 -36.2829 205.712 -35.8789 205.43C-36.8017 201.646 -36.7795 196.994 -35.7305 192.709C-34.6256 188.197 -32.3427 183.939 -28.6475 181.585C-27.0571 180.572 -25.0296 180.501 -23.1807 180.676C-21.3423 180.85 -19.3712 181.314 -17.9912 181.542L-17.9922 181.541C-17.0485 181.697 -16.0118 182.108 -15.0713 182.529C-14.5934 182.743 -14.1199 182.969 -13.6797 183.179C-13.457 183.285 -13.2437 183.386 -13.04 183.482L-12.458 183.745L-12.4316 183.757C-8.83574 185.463 -6.51038 187.156 -4.61328 189.263C-2.93179 191.13 -1.61354 193.303 -0.044918 195.991C0.618805 195.484 1.43782 194.936 2.33496 194.38C3.70087 193.533 5.30138 192.631 6.92286 191.761C9.9368 190.144 13.0571 188.624 14.9424 187.766C15.1592 186.918 15.5142 185.531 15.8916 184.165C16.1167 183.351 16.3522 182.536 16.5713 181.844C16.7841 181.171 17.0009 180.552 17.1934 180.169C20.2035 174.183 23.988 166.42 28.6611 161.386C31.3367 158.504 34.2667 156.427 37.1729 154.343C36.3511 153.688 35.5656 153.026 34.7939 152.372C33.8662 151.586 32.9569 150.814 32.0068 150.057C29.7805 151.233 27.1571 152.545 25.2637 153.821H25.2627C23.3551 155.106 21.4029 156.259 19.4678 157.385C17.5256 158.515 15.6058 159.613 13.7236 160.809C11.8224 162.059 9.98296 163.414 8.08204 164.766C6.1883 166.112 4.24739 167.447 2.20215 168.609H2.20118C1.7541 168.863 0.555891 169.592 -0.594723 170.037C-1.16035 170.256 -1.82082 170.452 -2.43164 170.438C-2.74733 170.43 -3.10368 170.366 -3.43261 170.171C-3.77837 169.966 -4.03135 169.655 -4.17285 169.27L-4.26367 169.021L-4.208 168.761C-4.02677 167.908 -3.5519 167.048 -2.93261 166.215C-2.30616 165.373 -1.48822 164.502 -0.550777 163.626C1.32413 161.874 3.74745 160.037 6.2627 158.291C11.2913 154.801 16.8092 151.593 19.25 150.091C20.7284 149.181 22.4242 148.286 24.0547 147.383C25.4412 146.615 26.796 145.832 28.0147 144.996C26.4193 142.396 25.3385 141.353 24.2881 139.904C23.219 138.43 22.3937 136.773 21.5068 133.263C19.2929 133.788 17.4684 134.394 15.124 135.081L15.1231 135.082C9.21968 136.806 3.38642 138.764 -2.36035 140.953C-2.83873 141.14 -3.63404 141.542 -4.66992 142.047C-5.67621 142.537 -6.86154 143.099 -8.0332 143.56C-9.19008 144.014 -10.4061 144.397 -11.4629 144.485C-12.4841 144.57 -13.7041 144.396 -14.3369 143.295L-14.4912 143.026L-14.4521 142.719C-14.4152 142.433 -14.3584 142.02 -14.1221 141.601C-13.6133 140.698 -12.7638 139.86 -11.7344 139.083C-10.6953 138.299 -9.41681 137.535 -7.98632 136.797C-5.12513 135.322 -1.57552 133.911 2.06934 132.629C8.82749 130.251 16.0437 128.266 19.96 127.109C19.7891 126.469 19.6447 125.908 19.543 125.267C18.0803 126.11 16.3823 126.64 14.6719 126.921C12.391 127.296 10.0146 127.245 7.9961 126.861C5.56304 126.4 2.92834 124.967 0.548832 123.308C-1.84896 121.636 -4.07359 119.672 -5.70019 118.052C-5.99744 117.756 -6.36225 117.253 -6.72461 116.719C-7.10141 116.163 -7.52342 115.5 -7.9375 114.835C-8.59422 113.78 -9.2226 112.739 -9.66992 112.031C-11.0092 112.304 -13.2735 112.689 -14.2148 112.765C-14.752 112.808 -15.5252 112.994 -16.4912 113.255C-17.4221 113.506 -18.5049 113.819 -19.5537 114.059C-20.5993 114.297 -21.6895 114.483 -22.6602 114.462C-23.6121 114.441 -24.6419 114.217 -25.3369 113.43L-25.4863 113.261L-25.541 113.041C-25.7295 112.279 -25.5873 111.568 -25.2051 110.956C-24.8415 110.374 -24.282 109.914 -23.6699 109.542C-22.4505 108.802 -20.7574 108.259 -19.0566 107.83C-17.3392 107.397 -15.5144 107.058 -14.0029 106.765C-13.2406 106.617 -12.562 106.482 -12.0019 106.351C-11.5804 106.252 -11.2602 106.161 -11.0352 106.082C-11.6221 102.44 -11.4811 99.6608 -10.2021 97.3995C-8.98934 95.2554 -6.84584 93.7409 -3.81933 92.3468C-4.44461 90.62 -4.91418 89.0083 -4.96386 87.378C-5.01925 85.5576 -4.55345 83.7799 -3.35839 81.8126C-3.72029 80.4856 -4.4011 77.9225 -4.833 75.4161C-5.07196 74.0293 -5.24191 72.6192 -5.23046 71.4288C-5.22471 70.8343 -5.17413 70.2604 -5.04785 69.756C-4.92429 69.2625 -4.70678 68.7474 -4.30273 68.3683C1.56188 62.8698 11.383 61.1068 18.4258 65.7911C18.7639 66.016 19.1476 66.3563 19.5068 66.6857C19.8904 67.0373 20.2605 67.3905 20.6475 67.7335C20.9602 68.0107 21.2483 68.245 21.5 68.421C21.5364 68.2316 21.5746 68.0167 21.6113 67.7794C21.7355 66.9779 21.8526 65.9713 21.959 64.9318C22.1669 62.9002 22.3407 60.6555 22.4365 59.8429L22.4385 59.838C23.0161 55.1577 23.6971 50.4907 24.4824 45.8409C22.1914 45.189 20.387 44.6144 18.6709 43.795C16.7469 42.8764 14.9677 41.6682 12.7217 39.755C12.4518 39.5251 12.145 39.2736 11.8145 39.0021C11.4868 38.7329 11.1374 38.4456 10.7939 38.1525C10.1162 37.5741 9.41761 36.9367 8.91211 36.3204C5.39293 32.0291 3.45001 25.9221 3.93164 20.3644C4.05039 18.9934 4.16592 17.7895 4.58399 16.6739C5.01686 15.519 5.74715 14.5184 6.9795 13.4474C9.77059 11.0217 13.6661 9.33867 17.6748 8.22277C21.6968 7.10327 25.9125 6.533 29.4141 6.37902L29.4424 6.37706L29.4707 6.37804C33.2189 6.44547 35.5142 6.6056 39.332 6.64171C40.1346 6.6493 41.1846 6.51526 42.4199 6.3341C43.6271 6.15705 44.9902 5.93847 46.3281 5.81163C47.6653 5.68489 49.0392 5.642 50.2852 5.8341C51.5306 6.02621 52.7323 6.4661 53.6299 7.37511H53.6309C54.1999 7.95167 54.3601 8.71347 54.3721 9.39269C54.384 10.0755 54.2485 10.8105 54.085 11.4894C53.9222 12.165 53.7074 12.8781 53.5459 13.463C53.3737 14.087 53.2637 14.5624 53.2441 14.8956C52.9178 20.4644 52.412 26.193 51.5361 31.7374V31.7482L51.5332 31.7579C51.1264 34.0047 49.9426 36.4982 48.4717 38.7335C46.997 40.9745 45.18 43.0382 43.4307 44.4083C41.5072 45.9147 39.7434 46.8275 37.832 47.2833C36.183 47.6765 34.4736 47.7152 32.5332 47.5568C32.2311 49.8547 31.4866 54.6159 30.8848 59.0939C30.5321 61.7179 30.2252 64.2619 30.0742 66.2228C29.9985 67.2059 29.9643 68.0199 29.9785 68.6153C29.9857 68.9149 30.0052 69.1346 30.0303 69.2804C30.0356 69.311 30.0426 69.3345 30.0469 69.3526C30.383 69.7298 30.8356 70.079 31.4092 70.4435C32.0361 70.8418 32.6972 71.1957 33.4697 71.6505C34.958 72.5267 36.6294 73.6468 37.8242 75.5382C38.5595 76.7025 39.1894 78.2643 38.7539 79.9112C38.3782 81.3313 37.4405 82.6146 36.3877 83.6622C35.5682 84.4777 34.6381 85.1874 33.75 85.7511C34.6352 87.4253 35.5154 89.1302 36.2275 90.9454C37.0069 92.9326 37.6109 94.986 38.2334 96.9523C38.8616 98.9365 39.5148 100.856 40.4072 102.675C40.7339 103.341 41.0522 104.09 41.3447 104.763C45.5081 105.549 50.2284 106.481 54.3516 107.024C57.8756 100.907 63.8972 94.6066 71.4131 93.4581C71.4199 93.395 71.4284 93.332 71.4356 93.2687C71.4002 93.5832 71.3672 93.8962 71.3418 94.2003L71.208 95.8019L72.6563 95.1056C72.9984 94.9411 73.3078 94.8028 73.668 94.6427L73.9531 94.5157L74.1025 94.2413C74.1925 94.0756 74.2539 93.9748 74.3027 93.8937C74.3357 93.839 74.4332 93.6854 74.4873 93.5011C74.5477 93.2947 74.5393 93.1086 74.5361 93.0216C74.5321 92.9085 74.5269 92.8148 74.5234 92.6251L74.5186 92.4005L74.4111 92.2042L74.1641 91.756C74.0787 91.6138 73.9862 91.4809 73.8779 91.3605C73.6639 91.1225 73.3891 90.9417 73.1025 90.7413L71.9209 89.9132C73.6465 81.1985 78.9607 73.1861 84.1719 66.4278C88.3378 61.025 94.0967 57.169 100.651 55.3419C101.259 53.9614 101.729 51.6025 102.023 48.5997C102.34 45.3726 102.443 41.5352 102.36 37.671C102.278 33.8084 102.01 29.9365 101.585 26.6388C101.269 24.189 100.872 22.1062 100.422 20.588C99.4762 21.7727 98.5333 23.1954 97.5967 24.4562H97.5957C94.1904 29.035 91.1572 33.4972 88.0156 38.3097C85.6877 41.8783 83.4647 45.1918 80.9258 48.7775C78.9255 51.6039 76.122 55.8286 72.8613 59.4083C69.6302 62.9555 65.7576 66.0922 61.5498 66.4562L61.5234 66.4591H61.4971C59.2467 66.5222 56.516 65.8182 54.8066 64.1202C53.0543 62.379 52.0421 59.7779 52.2402 57.2882C52.7122 51.3575 54.3372 44.4002 55.9141 38.7433L55.918 38.7306C58.4469 30.1464 62.1812 22.1833 66.4971 14.4249C67.339 12.9113 68.1445 11.2774 69.0166 9.60656C69.8782 7.95574 70.7926 6.2952 71.8154 4.82335L71.8174 4.8214C75.9423 -1.08246 80.1428 -7.86872 85.1436 -13.2362C89.2529 -17.6451 96.6811 -21.9132 102.634 -22.9696C107.229 -23.7848 108.571 -23.362 112.645 -25.2245ZM-4.85839 276.762C-4.80859 276.799 -4.75737 276.834 -4.70703 276.869C-4.76913 276.826 -4.83107 276.781 -4.89257 276.734L-4.85839 276.762ZM20.9541 276.133C20.6056 276.4 20.2592 276.642 19.916 276.862C20.0861 276.753 20.2574 276.639 20.4287 276.519L20.9551 276.133H20.9541ZM25.9199 226.432C23.3798 226.531 19.6397 226.852 17.1318 227.267C13.8263 230.048 10.2636 234.908 7.33496 238.226C4.40431 241.545 1.28645 244.649 -1.65429 247.936C-3.81082 250.344 -5.69751 253.276 -8.08593 255.466C-11.7362 255.081 -13.6062 254.758 -16.6152 257.277C-17.6038 258.103 -18.5281 259.151 -18.6103 260.499C-18.6627 261.357 -18.3285 262.224 -17.7383 262.846C-16.8709 263.76 -14.774 263.997 -13.5791 263.987C-12.4966 263.979 -11.466 263.745 -10.4922 263.271C-8.68534 262.393 -5.30921 259.111 -3.31836 261.332C-2.00896 262.794 -3.27029 268.103 -0.940426 271.651C-0.437596 271.292 0.0937761 270.927 0.567387 270.535C2.60139 268.509 7.40009 261.013 9.96582 265.02C11.9696 268.148 11.8091 269.998 14.9414 272.578C17.1564 271.557 18.7631 270.185 20.5879 268.612C22.1708 267.25 22.7669 263.451 24.0215 262.426C28.9958 258.36 32.5935 253.523 36.8037 248.735C38.2522 247.09 39.9371 246.183 41.3477 244.283C36.5864 241.55 34.3462 239.695 32.3643 234.454C31.3738 231.837 31.203 229.334 30.3584 226.729C28.9161 226.6 27.3567 226.425 25.9199 226.432ZM-8.36035 271.177C-8.34031 271.235 -8.31916 271.293 -8.29882 271.351C-8.3685 271.153 -8.43718 270.951 -8.5039 270.743L-8.36035 271.177ZM27.0518 270.149L27.1914 269.858C27.1933 269.853 27.1944 269.849 27.1963 269.845C27.1419 269.965 27.0934 270.069 27.0518 270.149ZM-24.3926 264.908C-24.3063 265.084 -24.2158 265.257 -24.1182 265.426L-24.3301 265.035C-24.3515 264.993 -24.3718 264.951 -24.3926 264.908ZM-24.5654 264.534C-24.5418 264.588 -24.5188 264.643 -24.4941 264.696C-24.5188 264.643 -24.5418 264.588 -24.5654 264.534ZM-24.7207 264.158C-24.6999 264.212 -24.678 264.266 -24.6562 264.319C-24.678 264.266 -24.6999 264.212 -24.7207 264.158ZM-25.3848 260.977C-25.3753 261.24 -25.3538 261.504 -25.3193 261.768L-25.3496 261.504C-25.367 261.328 -25.3785 261.152 -25.3848 260.977ZM-24.0019 256.064C-24.0544 256.143 -24.1047 256.224 -24.1543 256.305C-24.1047 256.224 -24.0544 256.143 -24.0019 256.064ZM-23.7246 255.666C-23.802 255.77 -23.8761 255.876 -23.9482 255.983C-23.8759 255.876 -23.8011 255.77 -23.7236 255.666C-23.6202 255.526 -23.5155 255.388 -23.4092 255.253L-23.7246 255.666ZM-18.9766 251.419C-18.989 251.426 -19.0012 251.434 -19.0137 251.442C-18.9701 251.416 -18.9266 251.391 -18.8828 251.365C-18.914 251.383 -18.9455 251.401 -18.9766 251.419ZM-18.1377 250.96C-18.3295 251.058 -18.5189 251.161 -18.707 251.267C-18.5189 251.161 -18.3295 251.059 -18.1377 250.96ZM46.3584 248.303C46.727 248.524 47.2687 248.84 47.9277 249.201C47.2691 248.84 46.7279 248.524 46.3594 248.303H46.3584ZM84.9707 247.38C85.127 247.585 85.2844 247.779 85.4434 247.964C85.4698 247.995 85.4969 248.025 85.5234 248.055C85.3089 247.81 85.0975 247.549 84.8877 247.269C84.9156 247.306 84.9428 247.343 84.9707 247.38ZM84.5039 246.734C84.6049 246.881 84.7073 247.022 84.8086 247.16C84.7072 247.022 84.6049 246.881 84.5039 246.734ZM83.8047 245.638C83.9609 245.9 84.1162 246.149 84.2715 246.387L84.0391 246.022C83.9612 245.897 83.8829 245.769 83.8047 245.638ZM102.962 233.236C100.393 235.212 97.5128 237.261 94.7246 238.924C92.755 240.101 90.5246 240.933 88.5391 242.257C89.4945 243.507 89.9886 244.047 91.3945 244.879C95.5228 246.707 101.265 247.096 103.346 242.079C104.26 239.877 105.581 234.64 102.962 233.236ZM52.7481 244.707C52.8797 244.775 53.0141 244.841 53.1504 244.907C53.0141 244.841 52.8797 244.775 52.7481 244.707ZM52.127 244.369C52.1951 244.409 52.264 244.449 52.334 244.487C52.264 244.448 52.1951 244.409 52.127 244.369ZM51.8057 244.176C51.8941 244.232 51.9848 244.287 52.0772 244.341C51.8895 244.23 51.7096 244.117 51.5391 244L51.8057 244.176ZM52.0859 243.587L52.3154 243.405C52.3741 243.358 52.4291 243.31 52.4824 243.265C52.3637 243.366 52.2331 243.473 52.0859 243.587ZM74.2568 242.239V242.24C75.1003 241.807 75.9401 241.365 76.7803 240.924V240.923C75.9401 241.364 75.1003 241.806 74.2568 242.239ZM93.8242 230.79C93.5774 230.855 93.1745 230.947 92.8369 231.05C92.4841 231.157 92.0664 231.313 91.7022 231.573L90.9551 232.108L91.4883 232.856L91.6318 233.057L91.8525 233.367L92.2285 233.431L92.5381 233.482L92.7744 233.522L93 233.441C93.0965 233.406 93.2375 233.361 93.4336 233.298C93.618 233.239 93.836 233.168 94.0479 233.09C94.2547 233.014 94.4855 232.921 94.6865 232.814C94.7871 232.76 94.9016 232.689 95.0098 232.603C95.1083 232.524 95.2627 232.384 95.3672 232.171L95.9033 231.075L94.7031 230.86L94.2207 230.775L94.0205 230.739L93.8242 230.79ZM1.41211 232.944C1.13281 233.065 0.853113 233.182 0.572269 233.296L1.41309 232.944C1.69245 232.824 1.97113 232.701 2.25 232.576L1.41211 232.944ZM5.63282 231.025L6.5 230.638L6.50196 230.637C6.20966 230.765 5.92032 230.895 5.63282 231.025ZM-28.7529 230.557C-28.6853 230.654 -28.6178 230.752 -28.5478 230.85C-28.6178 230.752 -28.6853 230.654 -28.7529 230.557ZM-29.1924 229.914C-29.1407 229.992 -29.0886 230.07 -29.0352 230.149C-29.0886 230.07 -29.1407 229.992 -29.1924 229.914ZM-22.0723 229.349C-21.9452 229.471 -21.8165 229.574 -21.6865 229.659L-21.8164 229.567C-21.9024 229.503 -21.9876 229.429 -22.0723 229.348V229.349ZM-29.6035 229.288C-29.5562 229.362 -29.5072 229.436 -29.458 229.512C-29.5072 229.436 -29.5562 229.362 -29.6035 229.288ZM-23.3379 227.597C-23.2754 227.705 -23.2142 227.813 -23.1504 227.918C-23.2141 227.813 -23.2754 227.705 -23.3379 227.597ZM-33.9922 227.629C-33.8084 227.705 -33.6234 227.777 -33.4365 227.845V227.844C-33.6233 227.776 -33.8084 227.705 -33.9922 227.629ZM-23.541 227.242C-23.5255 227.27 -23.5087 227.297 -23.4932 227.325C-23.6584 227.03 -23.8215 226.728 -23.9844 226.428L-23.541 227.242ZM103.262 224.84C103.026 225.053 102.792 225.266 102.563 225.48L102.564 225.481C102.793 225.267 103.026 225.054 103.262 224.84ZM-25.9453 223.657C-25.8969 223.696 -25.8488 223.736 -25.8018 223.778C-25.8489 223.736 -25.8968 223.695 -25.9453 223.656C-25.9911 223.62 -26.039 223.585 -26.0879 223.551C-26.039 223.585 -25.9911 223.621 -25.9453 223.657ZM8.28711 222.964C7.8887 223.107 7.49709 223.258 7.11036 223.413L7.69434 223.185C7.8905 223.11 8.08784 223.036 8.28711 222.964ZM-26.3975 223.359L-26.5644 223.272C-26.5776 223.265 -26.5912 223.259 -26.6045 223.253C-26.5336 223.287 -26.4645 223.322 -26.3975 223.359ZM-26.6855 223.216C-26.7403 223.191 -26.7959 223.167 -26.8525 223.144C-26.7959 223.167 -26.7403 223.191 -26.6855 223.216ZM-26.9121 223.119C-26.971 223.096 -27.031 223.074 -27.0918 223.052C-27.031 223.074 -26.971 223.096 -26.9121 223.119ZM-27.1904 223.017C-27.2374 223.001 -27.285 222.985 -27.333 222.97C-27.285 222.985 -27.2374 223.001 -27.1904 223.017ZM-27.4502 222.933C-27.4822 222.923 -27.5145 222.914 -27.5469 222.904C-27.5145 222.914 -27.4822 222.923 -27.4502 222.933ZM-27.998 222.784C-28.1801 222.74 -28.3658 222.698 -28.5537 222.659C-28.3658 222.698 -28.1801 222.74 -27.998 222.784ZM-36.5508 216.575C-36.502 216.707 -36.4503 216.839 -36.3965 216.972C-36.4502 216.84 -36.5011 216.707 -36.5498 216.575C-36.4464 216.258 -36.335 215.892 -36.2158 215.531C-36.3352 215.892 -36.4474 216.258 -36.5508 216.575ZM121.844 216.844L122.627 215.943C122.726 215.829 122.823 215.712 122.922 215.597C122.564 216.016 122.205 216.432 121.844 216.844ZM123.357 215.084C123.4 215.033 123.443 214.982 123.486 214.931C123.443 214.982 123.4 215.033 123.357 215.084ZM-32.3701 212.37C-32.4054 212.382 -32.44 212.395 -32.4746 212.407C-32.4339 212.393 -32.3931 212.378 -32.3516 212.364L-32.3701 212.37ZM87.3799 212.166C87.4318 212.124 87.4829 212.082 87.5342 212.039C87.4829 212.082 87.4318 212.124 87.3799 212.166ZM88.626 211.057C88.3178 211.359 87.9976 211.65 87.6641 211.932C87.7092 211.894 87.7552 211.857 87.7998 211.818C88.0394 211.612 88.2718 211.4 88.4981 211.183C88.5412 211.141 88.5833 211.099 88.626 211.057ZM88.7168 210.965C88.8657 210.817 89.0137 210.668 89.1572 210.515C89.0137 210.668 88.8657 210.817 88.7168 210.965ZM165.032 209.809C165.051 209.763 165.069 209.717 165.084 209.668L165.086 209.66C165.07 209.712 165.052 209.761 165.032 209.809ZM-39.8066 209.328L-39.8223 209.344C-39.7209 209.247 -39.617 209.15 -39.5098 209.055C-39.6113 209.145 -39.7103 209.236 -39.8066 209.328ZM69.791 209.133C69.8042 209.137 69.818 209.14 69.8311 209.144C69.8182 209.14 69.805 209.137 69.792 209.133C69.7064 209.106 69.6238 209.074 69.543 209.039C69.6235 209.074 69.7057 209.106 69.791 209.133ZM83.8106 206.321H83.8115H83.8106ZM86.21 203.455C85.9119 203.902 85.6104 204.33 85.3047 204.733L85.7607 204.11C85.9116 203.897 86.0609 203.678 86.21 203.455ZM155.863 194.092C156.033 194.444 156.357 195.257 156.787 196.341C156.357 195.257 156.034 194.444 155.864 194.092H155.863ZM91.2969 194.913C91.0238 195.334 90.7503 195.778 90.4756 196.237L90.8867 195.562C91.0236 195.341 91.1603 195.125 91.2969 194.914V194.913ZM13.1377 189.63C12.4568 189.959 11.7184 190.322 10.9482 190.709L12.0762 190.149C12.4424 189.968 12.7971 189.794 13.1377 189.63ZM-20.1728 188.575L-20.335 188.535C-20.3882 188.523 -20.4419 188.513 -20.4951 188.501C-20.3878 188.525 -20.2804 188.55 -20.1728 188.575ZM-9.37402 186.468C-9.52033 186.375 -9.66997 186.283 -9.82226 186.191C-9.66992 186.283 -9.52033 186.375 -9.37402 186.468ZM-9.98339 186.094C-10.1165 186.014 -10.2518 185.935 -10.3896 185.856C-10.2518 185.935 -10.1166 186.014 -9.98339 186.094ZM23.1328 184.029L22.5176 185.492L23.1133 184.076C23.2418 183.777 23.3754 183.476 23.5088 183.173C23.3823 183.46 23.2549 183.745 23.1328 184.029ZM50.1084 182.57C50.5558 182.665 51.0307 182.776 51.5273 182.901L50.7998 182.724C50.5629 182.668 50.3322 182.617 50.1084 182.569V182.57ZM53.1475 172.463C53.2435 172.384 53.3385 172.307 53.4307 172.229L53.4414 172.219C53.3457 172.3 53.2473 172.381 53.1475 172.463ZM-3.30957 168.952C-3.2927 168.998 -3.27263 169.04 -3.25097 169.08C-3.27256 169.041 -3.29176 168.998 -3.30859 168.952C-3.29139 168.871 -3.27142 168.789 -3.24707 168.706C-3.27143 168.789 -3.29236 168.871 -3.30957 168.952ZM136.464 167.859C136.43 167.962 136.398 168.067 136.364 168.172C136.414 168.017 136.464 167.862 136.516 167.708L136.464 167.859ZM65.0547 166.196C65.1558 166.167 65.254 166.14 65.3486 166.114L65.3584 166.111C65.2607 166.138 65.1593 166.166 65.0547 166.196ZM177.074 164.332C177.129 164.454 177.279 164.645 177.491 164.879C177.279 164.644 177.129 164.453 177.074 164.331V164.332ZM153.839 150.802C146.644 154.59 147.123 154.819 139.313 156.312C142.534 160.28 142.052 163.098 147.304 163.645C149.432 163.863 151.561 164.07 153.693 164.264C158.311 164.182 163.679 164.436 167.663 161.839C165.8 160.417 154.812 151.128 153.839 150.802ZM27.7266 163.894C27.6754 163.958 27.6252 164.024 27.5742 164.089C27.6252 164.024 27.6754 163.958 27.7266 163.894ZM36.9375 163.031C36.739 163.2 36.5423 163.373 36.3467 163.549L36.9385 163.031C37.1141 162.882 37.2921 162.735 37.4727 162.589C37.292 162.735 37.1132 162.882 36.9375 163.031ZM28.9102 162.48C28.6848 162.733 28.4614 162.994 28.2402 163.26C28.3554 163.121 28.4717 162.985 28.5879 162.85L28.9102 162.48ZM181.019 160.592C181.04 160.571 181.063 160.551 181.084 160.531L181.337 160.284C181.24 160.379 181.134 160.483 181.019 160.592ZM13.2305 160.033C12.99 160.191 12.7506 160.352 12.5117 160.513L13.2314 160.033C13.4689 159.883 13.7068 159.733 13.9453 159.585C13.7066 159.733 13.4681 159.882 13.2305 160.033ZM167.597 135.535C166.189 139.013 161.076 145.86 157.901 147.904C162.584 151.947 167.238 155.461 171.95 159.65C172.953 158.862 173.573 158.353 174.488 157.47C178.191 154.347 184.303 147.766 186.041 143.371C184.285 142.722 182.684 141.513 180.941 140.777C176.557 138.926 172.125 136.996 167.597 135.535ZM94.6406 156.987C94.4009 157.149 94.145 157.282 93.8897 157.388C93.0555 157.734 92.0589 157.884 91.1143 157.887C90.8844 157.888 90.653 157.879 90.4229 157.861C90.653 157.878 90.8844 157.887 91.1143 157.886C92.059 157.883 93.0554 157.733 93.8897 157.387C94.1448 157.281 94.4009 157.149 94.6406 156.987ZM90.4229 157.861C90.3638 157.857 90.305 157.85 90.2461 157.845C90.3049 157.85 90.3638 157.857 90.4229 157.861ZM90.0732 157.828C89.9772 157.817 89.8819 157.804 89.7871 157.79C89.8818 157.804 89.9773 157.817 90.0732 157.828ZM88.501 157.473C88.8871 157.613 89.3123 157.717 89.7539 157.785C89.3093 157.717 88.8821 157.612 88.4941 157.471C88.4965 157.471 88.4987 157.472 88.501 157.473ZM130.776 156.805V156.804V156.805ZM94.8203 152.332C95.6519 153.373 96.0549 154.436 95.7939 155.443C95.6966 155.819 95.5196 156.139 95.293 156.409C95.5194 156.138 95.6957 155.818 95.793 155.442C96.0538 154.435 95.6508 153.374 94.8193 152.333L94.6953 152.177L94.8203 152.332ZM93.1924 156.288C93.1611 156.303 93.1298 156.317 93.0977 156.33C93.1298 156.317 93.1611 156.303 93.1924 156.288ZM93.3457 156.211C93.3354 156.217 93.3248 156.222 93.3145 156.228C93.3249 156.222 93.3354 156.217 93.3457 156.211ZM93.5508 156.076C93.5364 156.087 93.5225 156.098 93.5078 156.109C93.5225 156.098 93.5364 156.087 93.5508 156.076ZM94.2773 154.868C94.242 155.029 94.196 155.175 94.1406 155.308V155.307C94.1682 155.241 94.1931 155.171 94.2158 155.098C94.2385 155.025 94.2587 154.948 94.2764 154.868C94.2586 154.811 94.2395 154.756 94.2188 154.703C94.2396 154.756 94.2595 154.811 94.2773 154.868ZM38.7051 154.373H38.707C38.4155 154.152 38.1287 153.93 37.8467 153.706C38.1283 153.93 38.4139 154.152 38.7051 154.373ZM126.98 153.104C126.972 153.279 126.974 153.446 126.987 153.606L126.977 153.36C126.976 153.277 126.977 153.191 126.981 153.104C126.984 153.061 126.987 153.02 126.992 152.98L126.98 153.104ZM94.1016 152.906L94.2363 153.081C94.1936 153.024 94.1485 152.966 94.1016 152.907C93.9009 152.891 93.7073 152.873 93.5195 152.853C93.7073 152.873 93.9008 152.89 94.1016 152.906ZM90.7656 152.915C90.7347 152.909 90.7036 152.905 90.6729 152.899L90.3731 152.835C90.5011 152.864 90.6324 152.89 90.7656 152.915ZM94.5723 152.022L94.6953 152.177L94.5713 152.023L94.2022 151.992L94.5723 152.022ZM93.624 151.939L94.1758 151.99L94.2022 151.992L94.1748 151.99L93.6231 151.939C93.5929 151.935 93.5631 151.93 93.5332 151.927C93.5634 151.93 93.5935 151.935 93.624 151.939ZM92.9316 151.847C93.1266 151.877 93.3261 151.903 93.5332 151.927C93.3261 151.903 93.1266 151.877 92.9316 151.847ZM92.3203 151.74C92.5207 151.781 92.7236 151.815 92.9316 151.847C92.7236 151.815 92.5207 151.781 92.3203 151.74ZM91.6484 151.585C91.8727 151.643 92.095 151.695 92.3203 151.74C92.095 151.695 91.8728 151.643 91.6484 151.585ZM90.8066 151.341C91.0383 151.415 91.2626 151.483 91.4844 151.543C91.2626 151.483 91.0384 151.415 90.8066 151.341ZM90.8066 151.341C90.7464 151.322 90.6853 151.303 90.624 151.282C90.6853 151.303 90.7464 151.322 90.8066 151.341ZM49.4609 151.182L49.4121 151.074C49.4057 151.062 49.3978 151.049 49.3906 151.035C49.4204 151.092 49.4449 151.141 49.4609 151.182ZM135.364 150.954C135.396 150.945 135.429 150.935 135.461 150.926C135.429 150.935 135.396 150.944 135.364 150.953C135.189 150.736 135.01 150.521 134.831 150.305C135.01 150.521 135.189 150.737 135.364 150.954ZM84.3721 148.53C84.3966 148.555 84.4231 148.579 84.4482 148.604C84.4233 148.579 84.3974 148.555 84.3731 148.53L84.1084 148.244L84.3721 148.53ZM83.1016 146.573H83.1025H83.1016ZM147.467 146.141C147.24 145.989 147.012 145.839 146.785 145.689C147.012 145.839 147.24 145.989 147.467 146.141ZM95.876 112.962C98.1225 113.005 99.7938 113.401 102.004 113.953C103.952 114.44 106.549 115.128 108.416 116.455C109.368 117.132 110.187 118.013 110.613 119.169C111.043 120.336 111.035 121.677 110.525 123.193C109.86 125.171 107.941 126.114 106.203 126.738C105.315 127.058 104.347 127.335 103.504 127.601C102.814 127.818 102.192 128.032 101.658 128.274C101.532 129.101 101.3 130.508 101.107 131.783C100.985 132.595 100.876 133.365 100.814 133.946C100.786 134.213 100.77 134.425 100.765 134.575C101.857 135.852 103.394 136.477 105.188 137.445C107.007 138.428 108.9 139.713 109.812 142.43L109.948 142.84L109.72 143.208C109.472 143.606 109.222 144.025 108.973 144.375C108.719 144.73 108.415 145.091 108.021 145.359C107.13 145.964 106.099 145.902 104.882 145.414L104.82 145.389L104.765 145.357C103.326 144.529 101.826 143.593 100.357 142.692C98.8805 141.786 97.4303 140.913 96.0596 140.184L95.8232 140.057L95.7275 139.887L95.4854 139.904C94.7796 139.955 92.967 140.017 91.2529 139.984C90.397 139.967 89.5402 139.927 88.8486 139.845C88.5052 139.804 88.1752 139.75 87.8965 139.675C87.7571 139.638 87.6101 139.589 87.4717 139.526C87.343 139.466 87.161 139.366 87.0068 139.197V139.196C86.4236 138.557 86.0141 137.931 85.8311 137.308C85.6374 136.648 85.7055 136.008 86.0439 135.457C86.36 134.943 86.8564 134.596 87.3535 134.356C87.8583 134.111 88.4406 133.939 89.0293 133.815C90.7808 133.444 92.9464 133.429 94.1611 133.443C94.3876 131.305 94.6931 129.341 95.2344 127.204C93.7351 124.352 92.4906 120.865 91.4961 117.91C91.2335 117.131 91.2084 116.398 91.4326 115.735C91.6546 115.079 92.0886 114.588 92.5703 114.225C93.4983 113.525 94.7603 113.186 95.6563 112.984L95.7647 112.959L95.876 112.962ZM146.127 145.256C145.939 145.134 145.751 145.012 145.563 144.891C145.751 145.012 145.939 145.133 146.127 145.256ZM105.223 144.56C105.349 144.61 105.47 144.653 105.586 144.692C105.471 144.654 105.35 144.61 105.224 144.56C105.061 144.466 104.898 144.369 104.733 144.273C104.898 144.369 105.06 144.466 105.223 144.56ZM144.78 144.392C144.614 144.286 144.447 144.181 144.28 144.076C144.447 144.181 144.614 144.286 144.78 144.392ZM-13.5117 142.644C-13.522 142.707 -13.5315 142.771 -13.54 142.837H-13.5391C-13.5305 142.771 -13.5218 142.707 -13.5117 142.644ZM51.1221 126.121C48.3091 126.447 45.4137 126.76 42.6299 127.264C37.8799 128.126 33.1088 129.319 28.3525 130.115C28.943 135.21 31.1437 136.478 33.7266 140.587L35.1377 142.329C41.7578 138.828 48.2957 136.722 55.0293 133.697C54.156 132.241 51.4186 127.714 51.5918 126.295C51.2243 126.11 51.3885 126.14 51.1221 126.121ZM-11.5361 140.095C-11.8097 140.316 -12.0594 140.538 -12.2861 140.76C-12.0597 140.539 -11.8102 140.316 -11.5371 140.096L-11.5361 140.095ZM138.39 140.733V140.732C138.101 140.586 137.811 140.443 137.52 140.302C137.811 140.443 138.101 140.587 138.39 140.733ZM137.44 140.264C137.206 140.151 136.971 140.04 136.734 139.93C136.971 140.04 137.206 140.151 137.44 140.264ZM-10.7998 139.538C-10.9302 139.631 -11.0568 139.724 -11.1797 139.817L-10.7998 139.539C-10.6692 139.446 -10.5353 139.353 -10.3975 139.261L-10.7998 139.538ZM163.711 101.562C163.459 104.446 163.137 105.508 162.237 108.306C164.843 110.135 166.385 111.33 167.968 114.234C170.585 119.034 170.766 126.003 169.022 131.177C174.639 133.028 182.078 135.743 187.217 138.73L187.84 138.904C188.139 138.697 188.222 138.659 188.299 138.28C188.863 135.56 187.744 132.642 186.156 130.478C183.925 127.44 180.017 125.282 176.698 123.652C174.834 122.737 172.307 121.858 170.969 120.217C168.872 117.644 171.821 110.713 166.99 104.68C166.04 103.492 164.869 102.537 163.711 101.562ZM129.689 137.246C130.352 137.442 131.003 137.651 131.646 137.871C131.86 137.945 132.073 138.019 132.285 138.095L132.284 138.094C131.436 137.79 130.571 137.507 129.688 137.245L129.689 137.246ZM65.8428 135.972C65.9484 136.049 66.0634 136.128 66.1856 136.21C66.0634 136.128 65.9483 136.049 65.8428 135.972ZM65.3613 134.933C65.2337 135.031 65.1373 135.13 65.0772 135.23C65.1794 135.431 65.4508 135.684 65.8428 135.972L65.8418 135.971C65.6855 135.856 65.5484 135.746 65.4336 135.644C65.3186 135.541 65.2263 135.444 65.1592 135.356C65.1258 135.312 65.0985 135.27 65.0781 135.23C65.0932 135.205 65.1104 135.18 65.1299 135.155C65.1689 135.106 65.2165 135.056 65.2725 135.007C65.3005 134.982 65.3303 134.957 65.3623 134.933H65.3613ZM90.9492 134.466C90.6541 134.493 90.3585 134.526 90.0684 134.567L90.5078 134.511C90.6546 134.494 90.8019 134.479 90.9492 134.466ZM95.4053 130.979C95.2335 132.078 95.1032 133.191 94.9902 134.374L94.9912 134.375C95.1042 133.192 95.2338 132.079 95.4053 130.98V130.979ZM60.6563 130.926C60.8019 131.163 60.9462 131.39 61.0889 131.605L60.6563 130.926ZM61.0889 131.605C61.2205 131.567 61.3915 131.51 61.5977 131.44C61.3915 131.51 61.2205 131.567 61.0889 131.605ZM61.8076 131.367C61.9439 131.32 62.0922 131.268 62.251 131.212C62.0922 131.268 61.9439 131.32 61.8076 131.367ZM65.9512 129.929C65.9191 129.939 65.8874 129.951 65.8555 129.961C66.1105 129.877 66.3699 129.793 66.6328 129.71L65.9512 129.929ZM102.579 126.935C101.941 127.15 101.34 127.383 100.819 127.66H100.82C101.341 127.383 101.941 127.15 102.579 126.935ZM58.4023 126.859C58.4695 126.988 58.5398 127.117 58.6084 127.248C58.5039 127.048 58.3989 126.851 58.2979 126.656L58.4023 126.859ZM95.9277 126.549C96.0214 126.731 96.1153 126.911 96.2109 127.087H96.2119C96.0785 126.841 95.9479 126.589 95.8184 126.332C95.8551 126.405 95.8908 126.477 95.9277 126.549ZM119.14 126.492C119.114 126.516 119.089 126.542 119.063 126.569L119.14 126.493C119.165 126.47 119.19 126.448 119.214 126.43L119.14 126.492ZM22.542 108.451C18.2414 108.358 0.802991 108.741 -2.80664 109.823C-1.1525 113.449 4.75191 118.065 8.41895 119.602C10.1468 120.325 13.5442 120.254 15.1914 119.365C16.6919 118.555 17.6506 116.839 19.1846 115.74C20.8104 115.556 23.4459 115.755 24.5693 117.067C26.1277 120.155 26.1255 122.958 26.8223 126.3C30.9492 125.353 34.8439 124.357 39.0264 123.525C41.0887 123.113 43.9925 122.651 45.9111 122.167C40.9113 118.77 37.6803 115.171 35.7852 109.293C31.3964 108.891 26.9509 108.496 22.542 108.451ZM95.376 125.426C95.4659 125.617 95.5566 125.807 95.6484 125.994C95.6771 126.053 95.7074 126.11 95.7363 126.168C95.6148 125.924 95.494 125.676 95.376 125.425V125.426ZM119.867 126.044C119.79 126.084 119.714 126.125 119.64 126.167V126.168C119.714 126.126 119.79 126.084 119.867 126.044ZM66.4766 125.067C66.6585 125.07 66.8549 125.072 67.0615 125.073C66.8612 125.072 66.6705 125.07 66.4932 125.067L65.6182 125.053L66.4766 125.067ZM140.094 124.686C140.26 124.698 140.426 124.713 140.594 124.728L140.095 124.686C140.045 124.682 139.994 124.679 139.943 124.675C139.994 124.679 140.044 124.682 140.094 124.686ZM138.631 124.581C138.459 124.569 138.282 124.56 138.103 124.548C138.282 124.56 138.459 124.569 138.631 124.581ZM127.82 124.389C127.323 124.418 126.831 124.454 126.348 124.499L127.079 124.439C127.325 124.42 127.572 124.403 127.82 124.389ZM134.06 124.344C135.084 124.377 136.071 124.425 136.988 124.479C136.071 124.425 135.084 124.377 134.06 124.344ZM97.3555 118.345C98.4069 120.15 98.6919 120.954 99.1289 123.004C100.759 122.403 101.784 122.062 103.461 121.639C104.165 121.42 104.149 121.547 104.547 121.076C103.878 119.951 98.7536 118.599 97.3555 118.345ZM0.21973 121.938C0.502248 122.146 0.787035 122.353 1.0752 122.554V122.553C0.787198 122.352 0.502098 122.146 0.21973 121.938ZM107.234 64.17C107.715 64.1328 108.485 64.2099 109.3 64.3263C110.155 64.4485 111.162 64.6288 112.159 64.8351C113.156 65.0413 114.156 65.2757 114.995 65.506C115.801 65.727 116.554 65.9688 116.99 66.2081L116.989 66.2091C119.745 67.7216 121.446 70.8421 122.413 73.6036C123.934 72.8238 125.627 72.3179 127.388 72.2247C132.677 71.9455 137.276 71.0038 142.158 75.1036C144.021 76.6676 145.511 79.2651 146.569 81.923C147.635 84.5989 148.314 87.4678 148.476 89.6866C148.659 92.2014 148.33 95.518 147.704 98.7433C147.077 101.971 146.137 105.193 145.053 107.516C144.884 107.878 144.482 108.501 144.018 109.182C143.536 109.889 142.936 110.731 142.324 111.566C141.271 113.002 140.134 114.485 139.501 115.207L139.262 115.468C135.02 119.81 129.225 122.199 123.29 122.491L123.222 122.494L123.154 122.488C122.231 122.397 120.842 122.137 119.496 121.817C118.157 121.5 116.779 121.105 115.897 120.726C112.935 119.452 111 118.29 109.513 116.686C108.2 115.269 107.288 113.56 106.285 111.288C103.405 112.574 100.008 113.155 96.6982 112.949C93.0441 112.722 89.4201 111.532 86.6963 109.184C83.2343 106.199 81.5354 102.361 81.083 98.2384C81.1677 97.8509 81.1659 97.4276 81.0801 96.9786L81.04 96.7931C81.0197 96.7069 80.9935 96.6229 80.9648 96.5401C80.8803 93.628 81.3643 90.6152 82.2481 87.6915C84.5781 79.9838 89.7461 72.5993 95.1025 68.6564C98.3845 66.2403 103.18 64.4502 107.234 64.1691V64.17ZM-0.594723 121.32C-0.340587 121.518 -0.083541 121.714 0.176762 121.906C-0.0835353 121.714 -0.340586 121.518 -0.594723 121.32ZM-3.62988 118.754C-2.96296 119.365 -2.23877 119.999 -1.47265 120.624C-1.21776 120.832 -0.957419 121.038 -0.694332 121.243C-1.74813 120.421 -2.74107 119.569 -3.62988 118.754ZM-4.35937 118.073C-4.2391 118.188 -4.11534 118.303 -3.99023 118.42C-4.11535 118.303 -4.2391 118.188 -4.35937 118.073ZM42.9336 110.284C44.4746 112.713 48.3481 117.461 51.0303 118.222L51.3857 118.121L51.5684 117.445C51.924 115.447 52.3394 114.144 52.9922 112.213C52.1219 111.934 43.8982 110.354 42.9336 110.284ZM-5.23046 117.202C-5.16564 117.279 -5.10632 117.346 -5.05175 117.401C-4.99828 117.454 -4.94247 117.506 -4.88769 117.56C-4.94264 117.506 -4.99812 117.453 -5.05175 117.4C-5.10618 117.345 -5.16584 117.279 -5.23046 117.202ZM-5.41992 116.964C-5.36392 117.037 -5.31054 117.105 -5.25976 117.166C-5.31054 117.105 -5.36391 117.037 -5.41992 116.964ZM107.556 116.984L107.213 116.775C107.196 116.764 107.178 116.755 107.16 116.745C107.295 116.822 107.427 116.901 107.556 116.984ZM-5.78613 116.46C-5.67998 116.612 -5.5792 116.753 -5.48437 116.88C-5.57922 116.753 -5.67995 116.612 -5.78613 116.46ZM-6.54296 115.322C-6.36772 115.596 -6.19577 115.857 -6.0332 116.099C-6.26112 115.76 -6.50419 115.381 -6.7539 114.986C-6.68233 115.099 -6.61338 115.213 -6.54296 115.322ZM58.1895 115.479C58.1433 115.637 58.1014 115.8 58.0606 115.965C58.1028 115.794 58.1468 115.627 58.1943 115.463L58.1895 115.479ZM111.329 100.591C111.066 104.457 111.889 109.057 114.545 111.996C119.276 117.231 128.425 116.599 133.266 112.074C133.719 111.645 134.149 111.19 134.552 110.711C135.322 109.797 136.077 108.868 136.901 108.004C134.197 107.563 132.06 107.248 129.458 106.33C126.887 110.297 123.445 111.605 119.306 108.706C118.754 108.321 118.25 107.872 117.804 107.368C117.35 105.551 117.247 104.981 117.393 103.031C114.675 102.422 113.689 101.514 111.329 100.591ZM-8.58593 112.031C-8.19118 112.669 -7.71422 113.449 -7.23437 114.222C-7.71428 113.449 -8.19113 112.668 -8.58593 112.031ZM95.5147 113.961C95.4051 113.988 95.2938 114.017 95.1816 114.048C95.3902 113.991 95.5958 113.941 95.793 113.896L95.5147 113.961ZM108.19 113.149C108.258 113.276 108.325 113.401 108.394 113.524C108.402 113.539 108.412 113.555 108.421 113.57C108.335 113.417 108.25 113.261 108.165 113.1L108.19 113.149ZM-24.6484 112.821C-24.5266 112.959 -24.3837 113.073 -24.2236 113.168C-24.3834 113.073 -24.5257 112.958 -24.6475 112.82C-24.6526 112.8 -24.6557 112.779 -24.6602 112.758C-24.6557 112.779 -24.6536 112.8 -24.6484 112.821ZM107.988 112.758C108.044 112.868 108.1 112.976 108.156 113.083C108.074 112.927 107.994 112.767 107.912 112.604C107.938 112.655 107.963 112.707 107.988 112.758ZM-24.6924 112.57C-24.6903 112.589 -24.6872 112.607 -24.6846 112.626C-24.6872 112.607 -24.6903 112.589 -24.6924 112.57ZM-24.7021 112.333C-24.7027 112.353 -24.7023 112.373 -24.7021 112.394C-24.7024 112.373 -24.7026 112.353 -24.7021 112.333ZM-24.6807 112.105C-24.6843 112.126 -24.6877 112.148 -24.6904 112.17C-24.6877 112.148 -24.6843 112.126 -24.6807 112.105ZM97.3994 112.061C97.6236 112.067 97.848 112.071 98.0723 112.07C97.8528 112.071 97.6334 112.068 97.4141 112.062C97.4092 112.061 97.4043 112.061 97.3994 112.061ZM96.7549 112.032C96.7867 112.034 96.8187 112.034 96.8506 112.036C96.7682 112.032 96.6858 112.025 96.6035 112.02C96.654 112.023 96.7043 112.029 96.7549 112.032ZM106.748 110.049C107.045 110.744 107.327 111.381 107.604 111.969C107.328 111.381 107.046 110.743 106.749 110.048L106.748 110.049ZM-24.6426 111.927C-24.644 111.932 -24.6441 111.937 -24.6455 111.942C-24.6404 111.924 -24.6356 111.905 -24.6299 111.886C-24.6341 111.9 -24.6387 111.913 -24.6426 111.927ZM94.7979 111.812C94.8271 111.816 94.8565 111.82 94.8857 111.824C94.8088 111.812 94.732 111.799 94.6553 111.785C94.7029 111.794 94.7502 111.804 94.7979 111.812ZM-24.5791 111.743C-24.5864 111.761 -24.5919 111.78 -24.5986 111.798C-24.592 111.78 -24.5864 111.761 -24.5791 111.743ZM-8.77539 111.725C-8.82165 111.651 -8.86699 111.58 -8.91015 111.512C-8.867 111.58 -8.82165 111.651 -8.77539 111.725ZM-24.5146 111.601C-24.5162 111.604 -24.517 111.607 -24.5186 111.61C-24.5053 111.584 -24.4912 111.558 -24.4766 111.531C-24.4895 111.554 -24.5028 111.577 -24.5146 111.601ZM-24.2012 111.142C-24.2816 111.235 -24.3528 111.33 -24.415 111.428C-24.32 111.279 -24.2031 111.135 -24.0664 110.997L-24.2012 111.142ZM-23.5811 110.585H-23.5801H-23.5811ZM61.0166 109.312C61.3144 109.369 61.6321 109.434 61.9668 109.507C61.6324 109.434 61.3152 109.369 61.0176 109.312C61.0829 109.202 61.1492 109.092 61.2158 108.984C61.1491 109.093 61.082 109.202 61.0166 109.312ZM-20.665 109.241C-20.8589 109.304 -21.049 109.368 -21.2344 109.435C-20.8632 109.302 -20.4736 109.176 -20.0713 109.058L-20.665 109.241ZM54.0029 107.907L54.8477 108.016L54.0029 107.906C53.5937 107.851 53.1789 107.79 52.7598 107.729C53.1791 107.79 53.5935 107.852 54.0029 107.907ZM87.7598 92.0626C87.3244 99.0383 88.26 105.715 97.3232 106.321C99.7405 106.483 104.876 106.183 105.447 103.23C105.563 102.347 106.051 99.4836 105.813 98.7775L105.369 98.4249C104.041 98.6189 101.679 104.467 95.8262 100.531C94.045 99.333 93.4944 97.2661 93.2666 95.1681C93.2484 95.0006 93.2302 94.8329 93.2139 94.6651C91.3195 93.5599 89.8362 92.787 87.7598 92.0626ZM9.11036 70.5694C5.8127 70.9419 4.86352 71.898 2.12793 72.5538C2.3267 73.8586 2.486 75.1693 2.60547 76.4835L2.7959 76.6153C4.03507 76.2766 6.33434 75.194 7.44043 75.4171C11.8685 76.3121 15.1054 78.3179 14.3408 83.3693C14.0853 85.0575 14.6786 87.7829 12.5967 88.9259C8.90873 90.95 5.24592 88.2448 1.94532 86.9816C2.32564 88.2719 2.8603 90.4453 3.63672 91.4532C5.56124 93.9515 10.1392 94.6471 10.1357 98.503C10.0786 99.818 10.0145 100.602 8.61817 100.912C6.85484 101.304 4.57833 101.015 3.16895 99.7452C0.682286 97.5047 -2.11231 98.9513 -3.7998 101.407C-4.63308 102.62 -4.39331 103.62 -4.22461 105.119L-3.96484 105.497C-2.88063 105.581 -0.264786 105.175 0.959965 105.035C3.13715 104.782 5.32119 104.587 7.50879 104.45C13.1893 104.094 18.9655 103.998 24.6572 104.017C27.5043 104.026 30.7506 104.417 33.6074 104.656C30.6053 96.4973 29.2487 88.7116 23.5322 81.7618C22.2232 80.1703 20.6312 79.0493 19.3408 77.4669C16.104 73.4241 15.0141 70.4604 9.11036 70.5694ZM84.1484 104.763C84.1672 104.794 84.187 104.825 84.2061 104.857C84.1286 104.729 84.0528 104.601 83.9795 104.472L84.1484 104.763ZM133.111 77.7823C125.963 78.438 122.681 80.1284 117.912 85.7179C116.093 87.8505 114.056 92.3007 113.298 94.9825C112.927 96.2958 123.944 99.2095 125.204 99.461C130.294 101.144 134.607 101.759 139.566 103.051C142.387 97.0433 143.864 82.9373 135.741 78.9757C134.877 78.5552 133.97 78.2245 133.111 77.7823ZM-10.4463 102.296C-10.4468 102.371 -10.4479 102.446 -10.4473 102.523C-10.4478 102.446 -10.4469 102.371 -10.4463 102.296ZM-10.4414 101.963C-10.4427 102.004 -10.4424 102.044 -10.4434 102.085C-10.4415 102.004 -10.4388 101.924 -10.4355 101.845C-10.4371 101.884 -10.4401 101.923 -10.4414 101.963ZM-10.4141 101.434C-10.4172 101.477 -10.4182 101.52 -10.4209 101.564C-10.4173 101.506 -10.4146 101.448 -10.4102 101.391L-10.4141 101.434ZM-10.3652 100.925C-10.3679 100.948 -10.3695 100.97 -10.3721 100.993C-10.3646 100.927 -10.3562 100.861 -10.3477 100.796C-10.3533 100.839 -10.3601 100.882 -10.3652 100.925ZM-10.2949 100.436C-10.2996 100.463 -10.3022 100.492 -10.3066 100.52C-10.2986 100.469 -10.291 100.419 -10.2822 100.369L-10.2949 100.436ZM167.783 97.0206C167.881 97.0869 167.979 97.1539 168.075 97.2218C167.871 97.0777 167.662 96.9369 167.449 96.7999L167.783 97.0206ZM72.2578 94.2775C72.1383 94.2901 72.0192 94.3041 71.9004 94.3194C72.0192 94.304 72.1383 94.2891 72.2578 94.2765V94.2775ZM109.771 70.1359C104.994 70.2368 99.3259 72.885 96.0762 76.4073C92.6058 80.168 91.5845 82.3213 89.6631 87.0118C93.6673 88.9793 96.0279 89.8779 100.272 91.0587C102.507 91.933 105.733 92.6586 107.529 93.5343C109.137 89.4727 110.409 85.3758 113.448 82.2364C114.673 80.9693 116.599 79.2198 117.628 77.9962C116.402 74.3422 116.376 73.7441 113.651 70.8859C112.802 70.6314 110.679 70.2352 109.771 70.1359ZM71.9209 89.9132C71.826 90.3927 71.7396 90.8739 71.667 91.3575L71.665 91.3722L71.6631 91.3859C71.5928 91.9776 71.5079 92.6263 71.4356 93.2687C71.5078 92.6259 71.5928 91.9767 71.6631 91.3849L71.8447 89.8605L71.9209 89.9132ZM72.5762 91.4943C72.5223 91.9478 72.4619 92.4175 72.4053 92.8868L72.4043 92.8859C72.4608 92.4168 72.5213 91.9475 72.5752 91.4943C72.6171 91.2153 72.6633 90.937 72.7129 90.6593C72.6633 90.9369 72.618 91.2153 72.5762 91.4943ZM73.374 92.2257C73.3855 92.245 73.396 92.2659 73.4082 92.2872C73.363 92.2082 73.3239 92.1433 73.2842 92.087H73.2852C73.3141 92.128 73.343 92.1735 73.374 92.2257ZM35.3711 91.2814C35.4667 91.525 35.5599 91.7694 35.6504 92.0148L35.3721 91.2814C35.333 91.1818 35.2911 91.0835 35.251 90.9845C35.291 91.0833 35.3321 91.1819 35.3711 91.2814ZM188.27 90.378C188.363 90.5516 188.459 90.7237 188.555 90.8966C188.43 90.6697 188.306 90.4426 188.184 90.215L188.27 90.378ZM35.1133 90.6485C35.0687 90.542 35.0232 90.436 34.9775 90.3302C35.0232 90.436 35.0687 90.5421 35.1133 90.6485ZM34.8096 89.9464C34.7844 89.8899 34.7608 89.8328 34.7354 89.7765C34.7202 89.743 34.7037 89.7102 34.6885 89.6769C34.7293 89.7665 34.7695 89.8564 34.8096 89.9464ZM165.354 83.8429C165.332 83.7357 165.312 83.6276 165.288 83.5196L165.272 83.4523C165.302 83.5829 165.328 83.7135 165.354 83.8429ZM-2.98632 83.0284C-3.11222 83.2697 -3.22845 83.5058 -3.33007 83.7403H-3.3291C-3.22752 83.5059 -3.1121 83.2696 -2.98632 83.0284ZM-2.36621 81.9601C-2.52523 82.207 -2.67147 82.4497 -2.80566 82.6886C-2.82494 82.7229 -2.84254 82.7579 -2.86132 82.7921C-2.71175 82.52 -2.54721 82.2427 -2.36523 81.9601C-2.45676 81.6264 -2.58517 81.1545 -2.73437 80.587C-2.5852 81.1544 -2.45774 81.6264 -2.36621 81.9601ZM25.3731 75.0011C26.5563 76.7863 28.0316 77.7127 29.0059 79.4855C29.5769 79.1203 29.7041 79.0224 30.3643 78.7882L30.7393 78.6573C30.3638 78.0617 26.2018 75.4187 25.3731 75.0011ZM88.2998 77.2794C88.1969 77.4303 88.0954 77.5826 87.9941 77.7355C88.1675 77.4737 88.3434 77.2149 88.5215 76.9591C88.4475 77.0655 88.3731 77.172 88.2998 77.2794ZM88.7158 76.6808C88.6505 76.7729 88.5862 76.8661 88.5215 76.9591C88.6852 76.7239 88.8511 76.4916 89.0186 76.2618C88.9172 76.4007 88.8157 76.5399 88.7158 76.6808ZM89.1406 76.0939C89.1094 76.1362 89.079 76.1792 89.0479 76.2218C89.2209 75.9848 89.3955 75.7505 89.5723 75.5196L89.1406 76.0939ZM141.142 75.464C141.283 75.5742 141.424 75.6886 141.566 75.8077V75.8068C141.424 75.6876 141.283 75.5732 141.142 75.463V75.464ZM122.36 74.6769C122.2 74.7678 122.041 74.8616 121.885 74.9591V74.9601C122.041 74.8625 122.2 74.7679 122.36 74.6769ZM90.9072 73.8722V73.8732V73.8722ZM124.188 73.8253C123.957 73.9105 123.729 74.0029 123.505 74.1017C123.324 74.1811 123.146 74.2659 122.97 74.3536C123.385 74.1471 123.812 73.9627 124.249 73.8038C124.229 73.8112 124.208 73.8178 124.188 73.8253ZM135.263 72.9855C135.688 73.0402 136.111 73.1134 136.531 73.211C136.391 73.1784 136.251 73.1487 136.11 73.1212C135.829 73.0661 135.546 73.021 135.262 72.9845L135.263 72.9855ZM127.436 73.1417C127.187 73.1548 126.941 73.1775 126.695 73.2081L127.064 73.1691C127.188 73.158 127.312 73.1493 127.437 73.1427L127.436 73.1417ZM94.1953 70.5558C93.8701 70.836 93.5462 71.1284 93.2246 71.4327L93.2383 71.421C93.61 71.0696 93.9849 70.7341 94.3613 70.4151C94.3062 70.462 94.2504 70.5083 94.1953 70.5558ZM94.6777 70.1495C94.6216 70.1955 94.5667 70.2433 94.5107 70.2901C94.6814 70.1477 94.8522 70.0085 95.0234 69.8732C94.9083 69.964 94.7925 70.0554 94.6777 70.1495ZM29.2207 69.7784C29.2385 69.8163 29.2573 69.8482 29.2783 69.8732H29.2793C29.2582 69.8481 29.2386 69.8165 29.2207 69.7784ZM95.6475 69.3956C95.4538 69.5381 95.2607 69.6861 95.0674 69.838C95.2605 69.6862 95.4539 69.5391 95.6475 69.3966C95.665 69.3837 95.6826 69.3704 95.7002 69.3575C95.6827 69.3703 95.6649 69.3828 95.6475 69.3956ZM29.1875 69.6886C29.198 69.7198 29.2069 69.7489 29.2188 69.7745C29.2069 69.7489 29.198 69.7198 29.1875 69.6886ZM29.1367 69.4933C29.1456 69.5386 29.1555 69.5805 29.166 69.6193C29.1555 69.5805 29.1456 69.5385 29.1367 69.4933ZM29.1045 69.296C29.1093 69.3341 29.1155 69.3704 29.1211 69.4054C29.1155 69.3704 29.1093 69.3341 29.1045 69.296ZM29.0742 67.5275C29.0462 68.2145 29.0516 68.7817 29.0938 69.1935C29.0772 69.0315 29.0655 68.8457 29.0606 68.6378C29.0528 68.3171 29.0582 67.9443 29.0752 67.5275C29.0833 67.3285 29.0933 67.1196 29.1064 66.9015C29.0933 67.1196 29.0823 67.3285 29.0742 67.5275ZM150.8 69.0021V69.003C150.872 68.9556 150.945 68.902 151.019 68.8439C150.945 68.9018 150.872 68.9547 150.8 69.0021ZM151.061 68.8087C151.096 68.78 151.133 68.7517 151.169 68.7208C151.194 68.6989 151.218 68.6746 151.244 68.6515C151.182 68.707 151.121 68.7597 151.061 68.8087ZM151.284 68.6153C151.343 68.5614 151.402 68.5048 151.462 68.4454C151.402 68.5048 151.343 68.5615 151.284 68.6153ZM151.979 67.8819C151.826 68.063 151.674 68.2311 151.525 68.3829C151.664 68.2414 151.806 68.087 151.949 67.92C151.96 67.9078 151.969 67.8943 151.979 67.8819ZM152.335 67.4444C152.351 67.4237 152.368 67.4029 152.384 67.3819C152.368 67.4029 152.351 67.4237 152.335 67.4444ZM116.806 67.1642C116.88 67.2095 116.954 67.2567 117.027 67.3048C116.954 67.2568 116.881 67.2094 116.807 67.1642L116.548 67.0148L116.806 67.1642ZM17.9814 66.6036C18.089 66.6793 18.2065 66.7691 18.3301 66.8722C18.2612 66.8147 18.195 66.7605 18.1309 66.711L17.9814 66.6036ZM60.6982 65.5294L61.0752 65.5431C60.9497 65.5412 60.8234 65.5354 60.6963 65.5284L60.6982 65.5294ZM139.717 63.9825C139.72 63.9826 139.723 63.9815 139.726 63.9816C139.626 63.9782 139.523 63.9718 139.418 63.9601L139.717 63.9825ZM23.2647 60.795C23.2565 60.8827 23.2479 60.9743 23.2393 61.0694C23.2826 60.5934 23.3205 60.2058 23.3506 59.9503L23.2647 60.795ZM129.796 59.8927C129.818 59.899 129.841 59.904 129.863 59.9103C129.61 59.839 129.356 59.7656 129.106 59.6857L129.796 59.8927ZM125.96 58.0167C126.001 58.0552 126.041 58.0939 126.083 58.131C126.041 58.0939 126.001 58.0551 125.96 58.0167ZM125.51 57.5294C125.606 57.6516 125.708 57.7683 125.816 57.879C125.828 57.8909 125.841 57.9015 125.853 57.9132C125.732 57.7919 125.617 57.6647 125.51 57.5294ZM125.335 57.2911C125.379 57.3549 125.424 57.4169 125.471 57.4776C125.424 57.4169 125.379 57.3548 125.335 57.2911ZM125.185 57.0597C125.227 57.1316 125.273 57.2012 125.319 57.2696C125.266 57.1905 125.214 57.1093 125.165 57.0255L125.185 57.0597ZM125.043 56.7999C125.08 56.8721 125.117 56.9429 125.157 57.0118C125.117 56.9429 125.08 56.8721 125.043 56.7999ZM124.895 56.4786C124.929 56.5618 124.966 56.6426 125.004 56.7218C124.966 56.6426 124.929 56.5618 124.895 56.4786ZM124.625 52.715C124.612 52.818 124.597 52.9201 124.586 53.0216C124.597 52.9201 124.612 52.818 124.625 52.715ZM124.661 52.4386C124.656 52.4761 124.651 52.5135 124.646 52.5509C124.655 52.4818 124.666 52.4126 124.677 52.3429C124.672 52.3749 124.666 52.4067 124.661 52.4386ZM180.33 52.1974C180.339 52.2366 180.348 52.2757 180.358 52.3146C180.348 52.2757 180.339 52.2365 180.33 52.1974ZM180.101 50.4864C180.218 51.0511 180.209 51.5937 180.313 52.1124C180.209 51.5935 180.219 51.0502 180.102 50.4855C180.056 50.264 180.014 50.043 179.976 49.8224L180.101 50.4864ZM124.925 50.8888C124.875 51.1545 124.826 51.4197 124.781 51.6827C124.826 51.4197 124.875 51.1545 124.925 50.8888ZM124.942 50.7941C124.936 50.8256 124.931 50.8572 124.925 50.8888C125.044 50.2542 125.173 49.6165 125.288 48.9972C125.178 49.5857 125.057 50.1908 124.942 50.7941ZM125.366 48.5568C125.401 48.3573 125.436 48.1606 125.467 47.9669C125.437 48.1606 125.401 48.3573 125.366 48.5568ZM125.48 47.8771C125.495 47.7788 125.509 47.6814 125.522 47.5851C125.509 47.6814 125.495 47.7788 125.48 47.8771ZM125.539 47.463C125.554 47.3472 125.568 47.2329 125.58 47.1202C125.568 47.2329 125.554 47.3472 125.539 47.463ZM114.01 41.795C114.024 41.5363 114.037 41.2775 114.05 41.0187C114.037 41.2775 114.024 41.5363 114.01 41.795ZM45.7637 13.0128C42.0812 13.5661 38.9284 13.857 35.1963 13.715C27.4804 13.4213 18.3529 13.6269 11.8076 18.4005C10.812 24.7573 12.1513 29.6931 17.167 33.8468C20.7681 36.6756 22.2754 37.8267 26.7754 38.923C29.5194 39.5914 32.0964 41.1035 35.2207 40.5235C37.5281 40.2769 40.5491 38.0369 41.876 36.1271C45.4645 30.9615 45.527 24.0613 46.1191 18.0323C46.1971 17.2393 46.3632 13.722 46.0596 13.1066L45.7637 13.0128ZM114.17 37.8175C114.147 38.7574 114.113 39.6974 114.069 40.6368C114.113 39.6974 114.147 38.7574 114.17 37.8175ZM34.7842 20.3458C36.8989 20.3983 38.296 21.2445 39.1982 22.5909C40.0426 23.851 40.4059 25.487 40.6914 27.0138C41.3969 30.7867 40.1795 33.7038 37.8623 35.6066C35.7256 37.3608 32.7377 38.1879 29.6758 38.1769L29.5488 38.3995L29.29 38.5226C28.7406 38.7829 28.1064 38.8119 27.543 38.7618C26.9625 38.7102 26.3518 38.5635 25.7773 38.38C24.6393 38.0165 23.511 37.4605 22.8643 37.003L22.8369 36.9835C22.7643 36.9281 22.664 36.8527 22.5762 36.7843H22.5752C21.3782 35.8509 19.6484 34.343 18.1777 32.6573C17.4421 31.8141 16.7557 30.9089 16.2334 29.9933C15.7156 29.0856 15.3271 28.1134 15.2529 27.1476C15.1649 26 15.5369 24.9271 16.3086 24.0773C16.687 23.6606 17.2375 23.3387 17.8164 23.0782C18.413 22.8099 19.1252 22.5697 19.9004 22.3546C21.452 21.924 23.3396 21.5695 25.2432 21.2843C29.0514 20.7138 33.0249 20.4069 34.7275 20.3458L34.7559 20.3448L34.7842 20.3458ZM114.175 37.6222C114.185 37.1722 114.192 36.7223 114.196 36.2726C114.192 36.7223 114.185 37.1722 114.175 37.6222ZM23.6162 36.3995C23.6986 36.4514 23.7881 36.5037 23.8828 36.5577C23.6958 36.451 23.5302 36.348 23.3945 36.2521L23.6162 36.3995ZM114.197 36.1271C114.201 35.6558 114.202 35.1848 114.198 34.714C114.202 35.1848 114.201 35.6558 114.197 36.1271ZM177.17 32.1544C177.093 32.1828 177.017 32.213 176.942 32.2452C177.017 32.2127 177.093 32.1829 177.17 32.1544ZM209.526 29.2452C209.573 29.3611 209.616 29.4754 209.654 29.588V29.587C209.616 29.4744 209.573 29.3601 209.526 29.2443V29.2452ZM113.711 26.9972C113.695 26.8747 113.68 26.7523 113.663 26.63C113.68 26.7523 113.695 26.8747 113.711 26.9972ZM113.391 24.6163C113.43 24.9782 113.476 25.3386 113.53 25.6964C113.537 25.7429 113.544 25.7895 113.551 25.836C113.544 25.7896 113.538 25.7429 113.531 25.6964C113.422 24.9809 113.349 24.2555 113.285 23.5275L113.391 24.6163ZM16.7773 24.9513H16.7783H16.7773ZM34.7607 21.2638C34.3438 21.2787 33.7849 21.3099 33.1221 21.3556C33.7849 21.31 34.3438 21.2797 34.7607 21.2648C34.8466 21.2669 34.9309 21.2696 35.0137 21.2745C34.9309 21.2695 34.8466 21.2659 34.7607 21.2638ZM105.215 16.4005C105.287 16.5584 105.357 16.7172 105.427 16.8771L105.216 16.4005C105.144 16.2425 105.07 16.0857 104.996 15.9298L105.215 16.4005ZM52.5 13.836C52.4799 13.9196 52.4597 14.0011 52.4424 14.0812C52.4597 14.0011 52.4799 13.9196 52.5 13.836ZM52.6309 13.3263C52.611 13.3994 52.5919 13.4717 52.5732 13.5431C52.5919 13.4717 52.611 13.3994 52.6309 13.3263ZM115.591 8.15441C115.681 8.34552 115.77 8.54359 115.857 8.74718L115.858 8.74816C115.771 8.5444 115.682 8.34664 115.592 8.15538C115.656 8.14002 115.721 8.12189 115.788 8.10558C115.721 8.12194 115.655 8.13899 115.591 8.15441ZM116.181 8.00792C116.235 7.994 116.29 7.98152 116.345 7.96691C116.396 7.9534 116.446 7.93807 116.498 7.92394C116.391 7.95331 116.285 7.98118 116.181 8.00792ZM116.589 7.89855C116.709 7.86505 116.83 7.82932 116.953 7.7921C116.83 7.82924 116.709 7.86512 116.589 7.89855ZM117.583 7.58702C117.421 7.64488 117.259 7.69768 117.098 7.74816C117.259 7.69759 117.421 7.64493 117.583 7.58702ZM32.0098 7.36046C34.0131 7.42303 35.7863 7.50217 37.9639 7.5421L39.3242 7.56066L37.9639 7.54113C37.5285 7.53314 37.1093 7.52343 36.7012 7.51281C35.0681 7.47037 33.6126 7.41043 32.0098 7.36046ZM97.709 -14.5341C97.0132 -14.1909 96.344 -13.8159 95.7207 -13.4198H95.7217C96.1371 -13.6838 96.573 -13.9384 97.0234 -14.1806C97.2486 -14.3016 97.4772 -14.4197 97.709 -14.5341ZM105.477 -16.496C105.682 -16.4845 105.885 -16.4788 106.085 -16.4765C105.885 -16.4788 105.683 -16.4846 105.478 -16.496C105.372 -16.5018 105.266 -16.5058 105.158 -16.5077C105.265 -16.5058 105.372 -16.5018 105.477 -16.496ZM124.827 -18.08C124.916 -17.9551 124.991 -17.8322 125.049 -17.7147V-17.7157C124.979 -17.8571 124.883 -18.005 124.771 -18.1561C124.79 -18.1305 124.809 -18.1055 124.827 -18.08ZM124.708 -18.2382C124.683 -18.2701 124.657 -18.3018 124.63 -18.3339C124.657 -18.3019 124.683 -18.2701 124.708 -18.2382ZM124.157 -18.8329C124.223 -18.7719 124.286 -18.7097 124.347 -18.6474C124.433 -18.5596 124.514 -18.4705 124.59 -18.3817C124.459 -18.5341 124.314 -18.687 124.156 -18.8339L124.157 -18.8329ZM113.026 -24.3886C112.763 -24.2682 112.51 -24.1558 112.266 -24.0526C112.51 -24.1558 112.763 -24.2672 113.026 -24.3876C113.183 -24.4592 113.342 -24.5297 113.502 -24.5975L113.026 -24.3886Z" fill="black"/>
</g>
</g>
<defs>
<clipPath id="clip0_3_15">
<rect width="196" height="196" fill="white"/>
</clipPath>
<clipPath id="clip1_3_15">
<rect width="196" height="196" fill="white"/>
</clipPath>
</defs>
</svg>
